<svg width="66" height="67" fill="none" xmlns="http://www.w3.org/2000/svg"><path d="M.461 16.914c0-8.837 7.164-16 16-16h33.387c8.837 0 16 7.164 16 16v33.387c0 8.837-7.163 16-16 16H16.461c-8.836 0-16-7.163-16-16V16.914Z" fill="#FF9B53"/><path d="M38.76 18.957a3.53 3.53 0 0 0-2.483-1.019 3.53 3.53 0 0 0-2.484 1.019L18.365 34.242a3.479 3.479 0 0 0-1.029 2.461 3.452 3.452 0 0 0 1.03 2.462l1.83 1.811c.796.79 1.916.65 2.592.25a1.967 1.967 0 0 1 2.377.296 1.919 1.919 0 0 1 .298 2.355c-.401.67-.545 1.78.253 2.568l1.832 1.813a3.515 3.515 0 0 0 2.484 1.02 3.541 3.541 0 0 0 2.485-1.02l15.426-15.282a3.479 3.479 0 0 0 1.029-2.461 3.452 3.452 0 0 0-1.03-2.462l-1.828-1.813c-.796-.789-1.917-.65-2.594-.25a1.967 1.967 0 0 1-2.377-.296 1.919 1.919 0 0 1-.298-2.355c.403-.67.545-1.779-.253-2.568l-1.83-1.814h-.002Z" fill="#fff"/></svg>