<svg width="25" height="25" viewBox="0 0 25 25" fill="none" xmlns="http://www.w3.org/2000/svg">
<circle cx="12.604" cy="12.6597" r="12" fill="#EBF0FB"/>
<path fill-rule="evenodd" clip-rule="evenodd" d="M12.604 7.58274C12.3883 7.58274 12.2135 7.75759 12.2135 7.97328V12.2691H7.91762C7.70193 12.2691 7.52708 12.444 7.52708 12.6596C7.52708 12.8753 7.70193 13.0502 7.91762 13.0502H12.2135V17.3461C12.2135 17.5617 12.3883 17.7366 12.604 17.7366C12.8197 17.7366 12.9945 17.5617 12.9945 17.3461V13.0502H17.2904C17.5061 13.0502 17.6809 12.8753 17.6809 12.6597C17.6809 12.444 17.5061 12.2691 17.2904 12.2691H12.9945V7.97328C12.9945 7.75759 12.8197 7.58274 12.604 7.58274Z" fill="#457EFF"/>
</svg>
