<svg width="17" height="16" fill="none" xmlns="http://www.w3.org/2000/svg"><g clip-path="url('#clip0_2701_1031')"><g clip-path="url('#clip1_2701_1031')" stroke="#7E8B97" stroke-width="1.5" stroke-linecap="round" stroke-linejoin="round"><path d="M12.067 13.743v-1.267a2.533 2.533 0 0 0-2.534-2.533H4.467a2.533 2.533 0 0 0-2.534 2.533v1.267M7 7.41a2.533 2.533 0 1 0 0-5.067A2.533 2.533 0 0 0 7 7.41ZM15.867 13.743v-1.267a2.533 2.533 0 0 0-1.9-2.45m-2.534-7.6a2.533 2.533 0 0 1 0 4.908"/></g></g><defs><clipPath id="clip0_2701_1031"><path fill="#fff" transform="translate(.5)" d="M0 0h16v16H0z"/></clipPath><clipPath id="clip1_2701_1031"><path fill="#fff" transform="translate(1.3 .443)" d="M0 0h15.2v15.2H0z"/></clipPath></defs></svg>