<svg width="66" height="67" fill="none" xmlns="http://www.w3.org/2000/svg"><path d="M.384 16.914c0-8.837 7.163-16 16-16H49.77c8.837 0 16 7.164 16 16v33.387c0 8.837-7.163 16-16 16H16.384c-8.837 0-16-7.163-16-16V16.914Z" fill="#FDBF00"/><path d="M19.618 41.58c0 1.468.656 2.784 1.683 3.7v2.134c0 1.383 1.127 2.5 2.523 2.5a2.509 2.509 0 0 0 2.524-2.5v-.833h13.459v.833c0 1.367 1.127 2.5 2.523 2.5 1.38 0 2.524-1.117 2.524-2.5v-2.133c1.026-.917 1.682-2.233 1.682-3.7V24.914c0-5.833-6.023-6.666-13.459-6.666s-13.459.833-13.459 6.666v16.667Zm5.889 1.668a2.509 2.509 0 0 1-2.524-2.5c0-1.384 1.127-2.5 2.523-2.5a2.508 2.508 0 0 1 2.524 2.5c0 1.383-1.127 2.5-2.524 2.5Zm15.14 0a2.509 2.509 0 0 1-2.523-2.5c0-1.384 1.127-2.5 2.524-2.5a2.508 2.508 0 0 1 2.523 2.5c0 1.383-1.127 2.5-2.523 2.5Zm2.524-10H22.983v-8.334h20.188v8.334Z" fill="#fff"/></svg>