<svg width="80" height="24" viewBox="0 0 80 24" fill="none" xmlns="http://www.w3.org/2000/svg">
<circle cx="12" cy="12" r="12" fill="#457EFF"/>
<path fill-rule="evenodd" clip-rule="evenodd" d="M8.98931 5.18287C8.80739 6.14665 7.7705 11.5756 7.55746 12.6827C7.34443 13.7897 8.25747 14.782 9.15389 14.782C10.0503 14.782 10.1688 14.782 10.5367 14.782C10.9047 14.782 11.4524 15.0405 11.2462 15.9817C11.0401 16.923 10.8268 17.8913 10.6173 18.8058C10.4077 19.7204 11.458 20.0892 11.9134 19.3762C12.3688 18.6632 15.769 13.2212 16.1603 12.4893C16.5516 11.7575 15.9107 10.6257 14.946 10.6257C13.9813 10.6257 13.5821 10.6257 13.0761 10.6257C12.5701 10.6257 12.499 10.2644 12.6827 9.52022C12.8663 8.77601 13.0872 7.80251 13.4286 6.37584C13.7701 4.94917 12.3941 4.17423 11.6691 4.17423C10.9441 4.17423 10.1645 4.17423 9.94961 4.17423C9.73469 4.17423 9.17123 4.21909 8.98931 5.18287Z" fill="white"/>
<path fill-rule="evenodd" clip-rule="evenodd" d="M65.1741 15.9223C66.335 15.9223 67.3279 15.0879 67.5278 13.9443L68.2487 9.82004H69.9272L70.2253 8.14154H68.5468L68.7036 7.23169C68.7664 6.9075 68.884 6.67742 69.0566 6.54147C69.2292 6.40551 69.488 6.33754 69.8331 6.33754C70.1421 6.33754 70.407 6.11684 70.4627 5.81294L70.6802 4.62766H69.8331C69.0069 4.62766 68.3193 4.82636 67.7703 5.22376C67.2212 5.62117 66.863 6.29048 66.6957 7.23169L66.5388 8.14154H65.4721L65.1741 9.82004H66.2408L65.1741 15.9223ZM36.3596 14.3536C36.2056 15.2595 35.4207 15.9223 34.5018 15.9223H29.2221L31.1516 4.9414C32.199 4.9414 32.9924 5.88726 32.8102 6.91871L31.4967 14.3536H36.3596ZM42.7554 15.7497C42.1854 15.9902 41.571 16.1105 40.9122 16.1105C40.2324 16.1105 39.6363 15.9589 39.1238 15.6556C38.6114 15.3523 38.2114 14.9418 37.9238 14.4242C37.6362 13.9065 37.4924 13.313 37.4924 12.6437C37.4924 11.9848 37.61 11.3704 37.8454 10.8005C38.0807 10.2305 38.4101 9.73115 38.8336 9.30237C39.2572 8.87359 39.7513 8.54155 40.316 8.30625C40.8808 8.07094 41.4873 7.95329 42.1357 7.95329C42.826 7.95329 43.4299 8.0997 43.9476 8.39253C44.4652 8.68535 44.8705 9.08798 45.1633 9.60042C45.4561 10.1129 45.6026 10.709 45.6026 11.3887C45.6026 12.058 45.4823 12.6777 45.2418 13.2476C45.0012 13.8176 44.6692 14.317 44.2456 14.7457C43.8221 15.1745 43.3253 15.5092 42.7554 15.7497ZM41.1788 14.3693C40.7291 14.3693 40.3448 14.2124 40.0258 13.8986C39.7069 13.5849 39.5474 13.1404 39.5474 12.5653C39.5474 12.0214 39.652 11.5325 39.8611 11.0985C40.0703 10.6645 40.3553 10.322 40.7161 10.071C41.0769 9.82004 41.4769 9.69454 41.9161 9.69454C42.3658 9.69454 42.7501 9.85141 43.0691 10.1652C43.3881 10.4789 43.5476 10.9234 43.5476 11.4985C43.5476 12.0424 43.443 12.5313 43.2338 12.9653C43.0247 13.3993 42.7423 13.7418 42.3867 13.9928C42.0312 14.2438 41.6285 14.3693 41.1788 14.3693ZM52.0297 15.734C51.4492 15.985 50.8244 16.1105 50.1551 16.1105C49.4648 16.1105 48.8635 15.9719 48.3511 15.6948C47.8386 15.4177 47.4438 15.0281 47.1667 14.5261C46.8896 14.0241 46.751 13.4385 46.751 12.7692C46.751 12.0999 46.8713 11.4724 47.1118 10.8868C47.3523 10.3011 47.6922 9.78867 48.1315 9.34943C48.5707 8.9102 49.0831 8.5677 49.6688 8.32194C50.2544 8.07617 50.8924 7.95329 51.5826 7.95329C52.5865 7.95329 53.3892 8.21997 53.9905 8.75333C54.5919 9.28668 54.8925 10.024 54.8925 10.9652C54.8925 10.9652 53.2142 11.0907 52.9236 10.7223C52.8178 10.5881 52.7477 10.4838 52.6877 10.3945L52.6877 10.3944C52.5828 10.2384 52.5088 10.1282 52.3292 9.98524C52.0468 9.76039 51.7133 9.66317 51.2845 9.66317C50.8348 9.66317 50.4217 9.79128 50.0453 10.0475C49.6688 10.3037 49.3707 10.6514 49.1511 11.0907C48.9315 11.5299 48.8217 12.0267 48.8217 12.5809C48.8217 13.1352 48.9733 13.5771 49.2766 13.9065C49.5799 14.2359 49.9721 14.4006 50.4531 14.4006C50.8819 14.4006 51.2767 14.2882 51.6375 14.0634C51.863 13.9228 51.9775 13.8144 52.1359 13.6644C52.2308 13.5744 52.3416 13.4695 52.5017 13.3336C52.9286 12.9713 54.516 13.0986 54.516 13.0986C54.2964 13.7052 53.9722 14.2333 53.5435 14.683C53.1147 15.1327 52.6101 15.483 52.0297 15.734ZM59.3195 16.1105C59.9784 16.1105 60.5928 15.9902 61.1628 15.7497C61.7327 15.5092 62.2295 15.1745 62.653 14.7457C63.0766 14.317 63.4086 13.8176 63.6491 13.2476C63.8897 12.6777 64.0099 12.058 64.0099 11.3887C64.0099 10.709 63.8635 10.1129 63.5707 9.60042C63.2779 9.08798 62.8726 8.68535 62.355 8.39253C61.8373 8.0997 61.2334 7.95329 60.5431 7.95329C59.8947 7.95329 59.2882 8.07094 58.7234 8.30625C58.1587 8.54155 57.6646 8.87359 57.241 9.30237C56.8175 9.73115 56.4881 10.2305 56.2528 10.8005C56.0175 11.3704 55.8998 11.9848 55.8998 12.6437C55.8998 13.313 56.0436 13.9065 56.3312 14.4242C56.6188 14.9418 57.0188 15.3523 57.5312 15.6556C58.0437 15.9589 58.6398 16.1105 59.3195 16.1105ZM58.4332 13.8986C58.7522 14.2124 59.1365 14.3693 59.5862 14.3693C60.0359 14.3693 60.4386 14.2438 60.7941 13.9928C61.1497 13.7418 61.4321 13.3993 61.6412 12.9653C61.8504 12.5313 61.955 12.0424 61.955 11.4985C61.955 10.9234 61.7955 10.4789 61.4765 10.1652C61.1575 9.85141 60.7732 9.69454 60.3235 9.69454C59.8843 9.69454 59.4843 9.82004 59.1235 10.071C58.7627 10.322 58.4777 10.6645 58.2685 11.0985C58.0594 11.5325 57.9548 12.0214 57.9548 12.5653C57.9548 13.1404 58.1143 13.5849 58.4332 13.8986ZM73.7882 17.5714C73.0967 18.6915 71.8743 19.3734 70.558 19.3734L72.7285 15.915L70.8404 8.14153C72.0979 8.14153 73.1887 9.01053 73.4697 10.2363L74.2444 13.6163L76.3915 9.97878C77.0636 8.84021 78.2873 8.14153 79.6094 8.14153L73.7882 17.5714Z" fill="#457EFF"/>
</svg>
