<svg width="80" height="25" viewBox="0 0 80 25" fill="none" xmlns="http://www.w3.org/2000/svg">
<circle cx="12" cy="12.7529" r="12" fill="#457EFF"/>
<path fill-rule="evenodd" clip-rule="evenodd" d="M8.9893 5.93579C8.80739 6.89957 7.77049 12.3285 7.55746 13.4356C7.34442 14.5426 8.25746 15.5349 9.15388 15.5349C10.0503 15.5349 10.1688 15.5349 10.5367 15.5349C10.9047 15.5349 11.4524 15.7934 11.2462 16.7347C11.04 17.6759 10.8268 18.6442 10.6173 19.5588C10.4077 20.4733 11.458 20.8421 11.9134 20.1291C12.3688 19.4161 15.769 13.9741 16.1603 13.2422C16.5516 12.5104 15.9107 11.3786 14.946 11.3786C13.9813 11.3786 13.5821 11.3786 13.0761 11.3786C12.57 11.3786 12.499 11.0174 12.6827 10.2731C12.8663 9.52893 13.0872 8.55544 13.4286 7.12877C13.7701 5.7021 12.3941 4.92715 11.6691 4.92715C10.9441 4.92715 10.1645 4.92715 9.94961 4.92715C9.73468 4.92715 9.17122 4.97201 8.9893 5.93579Z" fill="white"/>
<path fill-rule="evenodd" clip-rule="evenodd" d="M65.1741 16.6752C66.335 16.6752 67.3279 15.8408 67.5278 14.6973L68.2487 10.573H69.9272L70.2253 8.89446H68.5468L68.7036 7.98462C68.7664 7.66042 68.884 7.43035 69.0566 7.29439C69.2292 7.15844 69.488 7.09046 69.8331 7.09046C70.1421 7.09046 70.407 6.86976 70.4627 6.56586L70.6802 5.38058H69.8331C69.0069 5.38058 68.3193 5.57929 67.7703 5.97669C67.2212 6.37409 66.863 7.0434 66.6957 7.98462L66.5388 8.89446H65.4721L65.1741 10.573H66.2408L65.1741 16.6752ZM36.3596 15.1065C36.2056 16.0124 35.4207 16.6752 34.5018 16.6752H29.2221L31.1516 5.69432C32.199 5.69432 32.9924 6.64019 32.8102 7.67163L31.4967 15.1065H36.3596ZM42.7554 16.5026C42.1854 16.7432 41.571 16.8634 40.9122 16.8634C40.2324 16.8634 39.6363 16.7118 39.1238 16.4085C38.6114 16.1052 38.2114 15.6948 37.9238 15.1771C37.6362 14.6594 37.4924 14.0659 37.4924 13.3966C37.4924 12.7378 37.61 12.1234 37.8454 11.5534C38.0807 10.9834 38.4101 10.4841 38.8336 10.0553C39.2572 9.62652 39.7513 9.29448 40.316 9.05917C40.8808 8.82387 41.4873 8.70622 42.1357 8.70622C42.826 8.70622 43.4299 8.85263 43.9476 9.14545C44.4652 9.43828 44.8705 9.84091 45.1633 10.3533C45.4561 10.8658 45.6026 11.4619 45.6026 12.1417C45.6026 12.811 45.4823 13.4306 45.2418 14.0006C45.0012 14.5705 44.6692 15.0699 44.2456 15.4987C43.8221 15.9274 43.3253 16.2621 42.7554 16.5026ZM41.1788 15.1222C40.7291 15.1222 40.3448 14.9653 40.0258 14.6516C39.7069 14.3378 39.5474 13.8934 39.5474 13.3182C39.5474 12.7744 39.652 12.2855 39.8611 11.8515C40.0703 11.4174 40.3553 11.0749 40.7161 10.824C41.0769 10.573 41.4769 10.4475 41.9161 10.4475C42.3658 10.4475 42.7501 10.6043 43.0691 10.9181C43.3881 11.2318 43.5476 11.6763 43.5476 12.2515C43.5476 12.7953 43.443 13.2842 43.2338 13.7182C43.0247 14.1522 42.7423 14.4947 42.3867 14.7457C42.0312 14.9967 41.6285 15.1222 41.1788 15.1222ZM52.0297 16.4869C51.4492 16.7379 50.8244 16.8634 50.1551 16.8634C49.4648 16.8634 48.8635 16.7249 48.3511 16.4477C47.8386 16.1706 47.4438 15.781 47.1667 15.279C46.8896 14.7771 46.751 14.1914 46.751 13.5221C46.751 12.8528 46.8713 12.2253 47.1118 11.6397C47.3523 11.054 47.6922 10.5416 48.1315 10.1024C48.5707 9.66312 49.0831 9.32062 49.6688 9.07486C50.2544 8.8291 50.8924 8.70622 51.5826 8.70622C52.5865 8.70622 53.3892 8.9729 53.9905 9.50625C54.5919 10.0396 54.8925 10.7769 54.8925 11.7181C54.8925 11.7181 53.2142 11.8436 52.9236 11.4752C52.8178 11.3411 52.7477 11.2367 52.6877 11.1474L52.6877 11.1474C52.5828 10.9913 52.5088 10.8811 52.3292 10.7382C52.0468 10.5133 51.7133 10.4161 51.2845 10.4161C50.8348 10.4161 50.4217 10.5442 50.0453 10.8004C49.6688 11.0566 49.3707 11.4044 49.1511 11.8436C48.9315 12.2828 48.8217 12.7796 48.8217 13.3339C48.8217 13.8881 48.9733 14.33 49.2766 14.6594C49.5799 14.9888 49.9721 15.1536 50.4531 15.1536C50.8819 15.1536 51.2767 15.0411 51.6375 14.8163C51.863 14.6757 51.9775 14.5673 52.1359 14.4173C52.2308 14.3273 52.3416 14.2224 52.5017 14.0866C52.9286 13.7242 54.516 13.8515 54.516 13.8515C54.2964 14.4581 53.9722 14.9862 53.5435 15.4359C53.1147 15.8856 52.6101 16.236 52.0297 16.4869ZM59.3195 16.8634C59.9784 16.8634 60.5928 16.7432 61.1628 16.5026C61.7327 16.2621 62.2295 15.9274 62.653 15.4987C63.0766 15.0699 63.4086 14.5705 63.6491 14.0006C63.8897 13.4306 64.0099 12.811 64.0099 12.1417C64.0099 11.4619 63.8635 10.8658 63.5707 10.3533C63.2779 9.84091 62.8726 9.43828 62.355 9.14545C61.8373 8.85263 61.2334 8.70622 60.5431 8.70622C59.8947 8.70622 59.2882 8.82387 58.7234 9.05917C58.1587 9.29448 57.6646 9.62652 57.241 10.0553C56.8175 10.4841 56.4881 10.9834 56.2528 11.5534C56.0175 12.1234 55.8998 12.7378 55.8998 13.3966C55.8998 14.0659 56.0436 14.6594 56.3312 15.1771C56.6188 15.6948 57.0188 16.1052 57.5312 16.4085C58.0437 16.7118 58.6398 16.8634 59.3195 16.8634ZM58.4332 14.6516C58.7522 14.9653 59.1365 15.1222 59.5862 15.1222C60.0359 15.1222 60.4386 14.9967 60.7941 14.7457C61.1497 14.4947 61.4321 14.1522 61.6412 13.7182C61.8504 13.2842 61.955 12.7953 61.955 12.2515C61.955 11.6763 61.7955 11.2318 61.4765 10.9181C61.1575 10.6043 60.7732 10.4475 60.3235 10.4475C59.8843 10.4475 59.4843 10.573 59.1235 10.824C58.7627 11.0749 58.4777 11.4174 58.2685 11.8515C58.0594 12.2855 57.9548 12.7744 57.9548 13.3182C57.9548 13.8934 58.1143 14.3378 58.4332 14.6516ZM73.7882 18.3243C73.0967 19.4444 71.8743 20.1263 70.558 20.1263L72.7285 16.6679L70.8404 8.89446C72.0979 8.89446 73.1887 9.76345 73.4697 10.9892L74.2444 14.3692L76.3915 10.7317C77.0636 9.59313 78.2873 8.89446 79.6094 8.89446L73.7882 18.3243Z" fill="#457EFF"/>
</svg>
