<svg width="118" height="24" viewBox="0 0 118 24" fill="none" xmlns="http://www.w3.org/2000/svg">
<line x1="5.04321" y1="11.8315" x2="108.595" y2="11.8316" stroke="#CCCCCC" stroke-dasharray="3 3"/>
<g clip-path="url(#clip0_1702_1152)">
<path d="M57.6235 21.75H56.2581C56.1209 21.75 55.9859 21.7185 55.8654 21.6585C55.745 21.5984 55.6429 21.5118 55.5686 21.4064C55.4942 21.301 55.45 21.1803 55.4399 21.0552C55.4298 20.9302 55.4541 20.8048 55.5107 20.6906L58.8171 14.0227L53.8524 13.9219L52.0417 15.9267C51.6965 16.3233 51.4211 16.5 50.7184 16.5H49.7992C49.6536 16.5043 49.5091 16.4764 49.3779 16.4188C49.2466 16.3612 49.1325 16.2755 49.0452 16.1691C48.9231 16.0186 48.8031 15.7636 48.92 15.3998L49.9366 12.0717C49.9443 12.0469 49.9536 12.022 49.9638 11.9977C49.9643 11.9953 49.9643 11.9929 49.9638 11.9906C49.9532 11.9663 49.9442 11.9414 49.9366 11.9161L48.919 8.56687C48.8087 8.21016 48.9292 7.96078 49.0503 7.81406C49.1316 7.71549 49.237 7.63573 49.3582 7.58118C49.4794 7.52664 49.6128 7.49883 49.7479 7.5H50.7184C51.2431 7.5 51.7524 7.71516 52.052 8.0625L53.8252 10.0336L58.8171 9.96609L55.5118 3.30984C55.4551 3.19568 55.4306 3.07036 55.4406 2.94533C55.4506 2.8203 55.4948 2.69956 55.569 2.59414C55.6432 2.48872 55.7452 2.40198 55.8656 2.34186C55.986 2.28175 56.1209 2.25016 56.2581 2.25H57.6384C57.831 2.25354 58.0202 2.29667 58.192 2.3762C58.3638 2.45572 58.5139 2.5696 58.6309 2.70937L65.0452 9.83438L68.0084 9.76312C68.2254 9.75234 68.8266 9.74859 68.9656 9.74859C71.8001 9.75 73.4928 10.5909 73.4928 12C73.4928 12.4434 73.2989 13.2656 72.0016 13.7887C71.2358 14.0981 70.2141 14.2547 68.9645 14.2547C68.8271 14.2547 68.2275 14.2509 68.0074 14.2402L65.0447 14.168L58.6145 21.293C58.4973 21.4321 58.3475 21.5454 58.1759 21.6246C58.0044 21.7037 57.8156 21.7465 57.6235 21.75Z" fill="#1262AE"/>
</g>
<circle cx="5.302" cy="12.3315" r="4" fill="white" stroke="#1262AE" stroke-width="2"/>
<circle cx="112.653" cy="11.9146" r="4" fill="white" stroke="#1262AE" stroke-width="2"/>
<defs>
<clipPath id="clip0_1702_1152">
<rect width="26.2624" height="24" fill="white" transform="translate(48.051)"/>
</clipPath>
</defs>
</svg>
