<svg width="118" height="24" fill="none" xmlns="http://www.w3.org/2000/svg"><path stroke="#CCC" stroke-dasharray="3 3" d="M5.043 11.832h103.552"/><g clip-path="url('#clip0_1702_1152')"><path d="M57.623 21.75h-1.365a.883.883 0 0 1-.393-.091.797.797 0 0 1-.296-.253.694.694 0 0 1-.058-.716l3.306-6.667-4.965-.101-1.81 2.005c-.346.396-.62.573-1.324.573H49.8a.978.978 0 0 1-.421-.081.894.894 0 0 1-.333-.25c-.122-.15-.242-.405-.125-.77l1.017-3.327a.823.823 0 0 1 .027-.074v-.007a.664.664 0 0 1-.027-.075l-1.018-3.35c-.11-.356.01-.605.131-.752a.85.85 0 0 1 .308-.233.931.931 0 0 1 .39-.081h.97c.525 0 1.034.215 1.334.563l1.773 1.97 4.992-.067-3.305-6.656a.693.693 0 0 1 .057-.716.796.796 0 0 1 .297-.252.882.882 0 0 1 .392-.092h1.38c.193.004.382.047.554.126.172.08.322.194.439.333l6.414 7.125 2.963-.07c.217-.012.819-.015.958-.015 2.834.001 4.527.842 4.527 2.251 0 .443-.194 1.266-1.491 1.789-.766.31-1.788.466-3.037.466-.138 0-.737-.004-.958-.015l-2.962-.072-6.43 7.125c-.118.14-.268.252-.44.332a1.38 1.38 0 0 1-.551.125Z" fill="#1262AE"/></g><circle cx="5.302" cy="12.332" r="4" fill="#fff" stroke="#1262AE" stroke-width="2"/><circle cx="112.653" cy="11.915" r="4" fill="#fff" stroke="#1262AE" stroke-width="2"/><defs><clipPath id="clip0_1702_1152"><path fill="#fff" transform="translate(48.051)" d="M0 0h26.262v24H0z"/></clipPath></defs></svg>