<svg width="25" height="25" fill="none" xmlns="http://www.w3.org/2000/svg"><g clip-path="url('#clip0_2701_1281')" fill="#1262AF"><path d="M12.873 22.219a9.891 9.891 0 1 1 0-19.783 9.891 9.891 0 0 1 0 19.783Zm0 1.413a11.305 11.305 0 1 0 0-22.61 11.305 11.305 0 0 0 0 22.61Z"/><path d="M10.35 7.527a.815.815 0 0 1 .847.062l5.705 4.075a.814.814 0 0 1 0 1.327l-5.705 4.074a.815.815 0 0 1-1.29-.663v-8.15a.815.815 0 0 1 .443-.725Z"/></g><defs><clipPath id="clip0_2701_1281"><path fill="#fff" transform="translate(.873 .327)" d="M0 0h24v24H0z"/></clipPath></defs></svg>