<svg width="24" height="25" fill="none" xmlns="http://www.w3.org/2000/svg"><path fill-rule="evenodd" clip-rule="evenodd" d="M7.429 5.743a.571.571 0 0 0-.572.571V8.6A.571.571 0 0 0 8 8.6V6.314a.571.571 0 0 0-.571-.571Zm0-1.143a1.714 1.714 0 0 1 1.714 1.714V8.6a1.714 1.714 0 0 1-3.429 0V6.314A1.714 1.714 0 0 1 7.43 4.6Z" fill="#303030"/><path fill-rule="evenodd" clip-rule="evenodd" d="M8 7.457c0-.315.256-.571.571-.571h12.572a.571.571 0 0 1 0 1.143H8.57A.571.571 0 0 1 8 7.457ZM2.286 7.457c0-.315.256-.571.571-.571h3.429a.571.571 0 0 1 0 1.143H2.857a.571.571 0 0 1-.571-.572ZM7.429 17.171a.571.571 0 0 0-.572.572v2.286a.571.571 0 0 0 1.143 0v-2.286a.572.572 0 0 0-.571-.572Zm-1.213-.64a1.714 1.714 0 0 1 2.927 1.212v2.286a1.714 1.714 0 1 1-3.429 0v-2.286c0-.455.18-.89.502-1.212Z" fill="#303030"/><path fill-rule="evenodd" clip-rule="evenodd" d="M8 18.886c0-.316.256-.572.571-.572h12.572a.571.571 0 0 1 0 1.143H8.57A.571.571 0 0 1 8 18.886ZM2.286 18.886c0-.316.256-.572.571-.572h3.429a.571.571 0 1 1 0 1.143H2.857a.571.571 0 0 1-.571-.571ZM16.571 11.457a.572.572 0 0 0-.571.572v2.286a.572.572 0 0 0 1.143 0v-2.286a.571.571 0 0 0-.572-.572Zm0-1.143a1.714 1.714 0 0 1 1.715 1.715v2.286a1.714 1.714 0 0 1-3.429 0v-2.286a1.714 1.714 0 0 1 1.714-1.714Z" fill="#303030"/><path fill-rule="evenodd" clip-rule="evenodd" d="M2.286 13.171c0-.315.256-.57.571-.57H15.43a.571.571 0 1 1 0 1.142H2.857a.571.571 0 0 1-.571-.572ZM17.143 13.171c0-.315.256-.57.571-.57h3.429a.571.571 0 1 1 0 1.142h-3.429a.572.572 0 0 1-.571-.572Z" fill="#303030"/></svg>