<svg width="118" height="25" fill="none" xmlns="http://www.w3.org/2000/svg"><path stroke="#CCC" stroke-dasharray="3 3" d="M5.043 12.746h103.552"/><g clip-path="url('#clip0_3491_2103')"><path d="M57.623 22.664h-1.365a.884.884 0 0 1-.393-.091.796.796 0 0 1-.297-.253.694.694 0 0 1-.058-.716l3.307-6.667-4.965-.101-1.81 2.005c-.346.396-.621.573-1.324.573H49.8a.98.98 0 0 1-.421-.081.893.893 0 0 1-.333-.25c-.122-.15-.242-.405-.125-.77l1.017-3.327a.794.794 0 0 1 .027-.074v-.007a.658.658 0 0 1-.027-.075l-1.018-3.35c-.11-.356.01-.605.131-.752a.85.85 0 0 1 .308-.233.931.931 0 0 1 .39-.08h.97c.525 0 1.034.214 1.334.562l1.773 1.97 4.992-.067-3.305-6.656a.693.693 0 0 1 .057-.716.796.796 0 0 1 .296-.252.882.882 0 0 1 .393-.092h1.38c.193.004.382.047.554.126.172.08.322.194.439.333l6.414 7.125 2.963-.07c.217-.012.819-.015.958-.015 2.834.001 4.527.842 4.527 2.251 0 .444-.194 1.266-1.491 1.789-.766.31-1.788.466-3.037.466-.138 0-.738-.004-.958-.015l-2.962-.072-6.43 7.125c-.118.14-.268.252-.44.332-.17.079-.36.122-.552.125Z" fill="#1262AE"/></g><circle cx="5.302" cy="13.246" r="4" fill="#fff" stroke="#1262AE" stroke-width="2"/><circle cx="112.653" cy="12.829" r="4" fill="#fff" stroke="#1262AE" stroke-width="2"/><defs><clipPath id="clip0_3491_2103"><path fill="#fff" transform="translate(48.051 .914)" d="M0 0h26.262v24H0z"/></clipPath></defs></svg>