<svg width="119" height="25" fill="none" xmlns="http://www.w3.org/2000/svg"><path stroke="#CCC" stroke-dasharray="3 3" d="M5.543 12.746h103.552"/><path d="M58.123 22.664h-1.365a.883.883 0 0 1-.393-.091.797.797 0 0 1-.297-.253.694.694 0 0 1-.058-.716l3.307-6.667-4.965-.101-1.81 2.005c-.346.396-.621.573-1.324.573h-.92a.98.98 0 0 1-.42-.081.894.894 0 0 1-.333-.25c-.122-.15-.242-.405-.125-.77l1.016-3.327a.795.795 0 0 1 .028-.074v-.007a.659.659 0 0 1-.028-.075L49.42 9.48c-.11-.356.01-.605.131-.752a.851.851 0 0 1 .308-.233.93.93 0 0 1 .39-.08h.97c.525 0 1.034.214 1.334.562l1.773 1.97 4.992-.067-3.306-6.656a.693.693 0 0 1 .058-.716.797.797 0 0 1 .296-.252.883.883 0 0 1 .393-.092h1.38c.193.004.382.047.554.126.172.08.322.194.439.333l6.414 7.125 2.963-.07c.217-.012.818-.015.957-.015 2.835.001 4.528.842 4.528 2.251 0 .444-.194 1.266-1.492 1.789-.765.31-1.787.466-3.037.466-.137 0-.737-.004-.957-.015l-2.963-.072-6.43 7.125c-.117.14-.267.252-.438.332-.172.079-.36.122-.553.125Z" fill="#1262AE"/><circle cx="5.802" cy="13.246" r="4" fill="#fff" stroke="#1262AE" stroke-width="2"/><circle cx="113.152" cy="12.829" r="4" fill="#fff" stroke="#1262AE" stroke-width="2"/></svg>