<svg width="25" height="24" viewBox="0 0 25 24" fill="none" xmlns="http://www.w3.org/2000/svg">
<path d="M12.5 22.1044C9.76733 22.1044 7.14661 21.0189 5.21434 19.0866C3.28207 17.1544 2.19653 14.5336 2.19653 11.801C2.19653 9.06835 3.28207 6.44763 5.21434 4.51536C7.14661 2.58309 9.76733 1.49755 12.5 1.49755C15.2326 1.49755 17.8533 2.58309 19.7856 4.51536C21.7179 6.44763 22.8034 9.06835 22.8034 11.801C22.8034 14.5336 21.7179 17.1544 19.7856 19.0866C17.8533 21.0189 15.2326 22.1044 12.5 22.1044ZM12.5 23.5763C15.623 23.5763 18.6181 22.3357 20.8264 20.1274C23.0347 17.9191 24.2753 14.924 24.2753 11.801C24.2753 8.67797 23.0347 5.68287 20.8264 3.47456C18.6181 1.26625 15.623 0.0256348 12.5 0.0256348C9.37695 0.0256348 6.38184 1.26625 4.17353 3.47456C1.96522 5.68287 0.724609 8.67797 0.724609 11.801C0.724609 14.924 1.96522 17.9191 4.17353 20.1274C6.38184 22.3357 9.37695 23.5763 12.5 23.5763Z" fill="#1262AF"/>
<path d="M9.87136 6.80073C10.0102 6.72923 10.1661 6.69742 10.3219 6.7088C10.4776 6.72018 10.6272 6.77432 10.7542 6.86525L16.6966 11.1098C16.8066 11.1883 16.8963 11.292 16.9582 11.4122C17.0201 11.5324 17.0524 11.6656 17.0524 11.8008C17.0524 11.936 17.0201 12.0692 16.9582 12.1894C16.8963 12.3096 16.8066 12.4133 16.6966 12.4918L10.7542 16.7364C10.6273 16.8272 10.4778 16.8813 10.3221 16.8927C10.1664 16.9041 10.0106 16.8723 9.87177 16.8009C9.73296 16.7295 9.61654 16.6212 9.53529 16.4879C9.45405 16.3546 9.41113 16.2015 9.41126 16.0454V7.55626C9.41109 7.4002 9.45395 7.24711 9.53512 7.11383C9.61629 6.98054 9.73263 6.8722 9.87136 6.80073Z" fill="#1262AF"/>
</svg>
