<svg width="25" height="24" viewBox="0 0 25 24" fill="none" xmlns="http://www.w3.org/2000/svg">
<path d="M12.5 22.1904C9.76733 22.1904 7.14661 21.1049 5.21434 19.1726C3.28207 17.2403 2.19653 14.6196 2.19653 11.887C2.19653 9.15432 3.28207 6.5336 5.21434 4.60133C7.14661 2.66906 9.76733 1.58352 12.5 1.58352C15.2326 1.58352 17.8533 2.66906 19.7856 4.60133C21.7179 6.5336 22.8034 9.15432 22.8034 11.887C22.8034 14.6196 21.7179 17.2403 19.7856 19.1726C17.8533 21.1049 15.2326 22.1904 12.5 22.1904ZM12.5 23.6623C15.623 23.6623 18.6181 22.4217 20.8264 20.2134C23.0347 18.0051 24.2753 15.01 24.2753 11.887C24.2753 8.76394 23.0347 5.76883 20.8264 3.56053C18.6181 1.35222 15.623 0.111603 12.5 0.111603C9.37695 0.111603 6.38184 1.35222 4.17353 3.56053C1.96522 5.76883 0.724609 8.76394 0.724609 11.887C0.724609 15.01 1.96522 18.0051 4.17353 20.2134C6.38184 22.4217 9.37695 23.6623 12.5 23.6623V23.6623Z" fill="#1262AF"/>
<path d="M9.87124 6.88682C10.0101 6.81532 10.166 6.78351 10.3218 6.79489C10.4775 6.80627 10.6271 6.86041 10.7541 6.95134L16.6965 11.1959C16.8065 11.2744 16.8962 11.3781 16.9581 11.4983C17.02 11.6185 17.0523 11.7517 17.0523 11.8869C17.0523 12.0221 17.02 12.1553 16.9581 12.2755C16.8962 12.3957 16.8065 12.4994 16.6965 12.5779L10.7541 16.8225C10.6272 16.9133 10.4776 16.9674 10.3219 16.9788C10.1663 16.9902 10.0105 16.9584 9.87164 16.887C9.73284 16.8156 9.61641 16.7073 9.53517 16.574C9.45392 16.4407 9.41101 16.2876 9.41113 16.1315V7.64235C9.41097 7.48629 9.45383 7.3332 9.535 7.19992C9.61617 7.06663 9.73251 6.95829 9.87124 6.88682V6.88682Z" fill="#1262AF"/>
</svg>
