<svg width="20" height="20" viewBox="0 0 20 20" fill="none" xmlns="http://www.w3.org/2000/svg">
<path d="M14.1667 2.0249H5.83332C3.33332 2.0249 1.66666 3.69157 1.66666 6.19157V11.1916C1.66666 13.6916 3.33332 15.3582 5.83332 15.3582V17.1332C5.83332 17.7999 6.57499 18.1999 7.12499 17.8249L10.8333 15.3582H14.1667C16.6667 15.3582 18.3333 13.6916 18.3333 11.1916V6.19157C18.3333 3.69157 16.6667 2.0249 14.1667 2.0249ZM9.99999 12.1666C9.64999 12.1666 9.37499 11.8832 9.37499 11.5416C9.37499 11.1999 9.64999 10.9166 9.99999 10.9166C10.35 10.9166 10.625 11.1999 10.625 11.5416C10.625 11.8832 10.35 12.1666 9.99999 12.1666ZM11.05 8.70824C10.725 8.92491 10.625 9.06658 10.625 9.29991V9.47491C10.625 9.81658 10.3417 10.0999 9.99999 10.0999C9.65832 10.0999 9.37499 9.81658 9.37499 9.47491V9.29991C9.37499 8.33324 10.0833 7.85824 10.35 7.6749C10.6583 7.46657 10.7583 7.3249 10.7583 7.10824C10.7583 6.69157 10.4167 6.3499 9.99999 6.3499C9.58332 6.3499 9.24166 6.69157 9.24166 7.10824C9.24166 7.4499 8.95832 7.73324 8.61666 7.73324C8.27499 7.73324 7.99166 7.4499 7.99166 7.10824C7.99166 5.9999 8.89166 5.0999 9.99999 5.0999C11.1083 5.0999 12.0083 5.9999 12.0083 7.10824C12.0083 8.05824 11.3083 8.53324 11.05 8.70824Z" fill="#929EAE"/>
</svg>
