<svg width="42" height="43" viewBox="0 0 42 43" fill="none" xmlns="http://www.w3.org/2000/svg">
<circle cx="21" cy="21.5" r="21" fill="#292642"/>
<path d="M15.1667 24.0002C13.325 24.0002 11.8333 25.4918 11.8333 27.3335C11.8333 27.9585 12.0083 28.5502 12.3167 29.0502C12.8917 30.0168 13.95 30.6668 15.1667 30.6668C16.3833 30.6668 17.4417 30.0168 18.0167 29.0502C18.325 28.5502 18.5 27.9585 18.5 27.3335C18.5 25.4918 17.0083 24.0002 15.1667 24.0002ZM16.4083 27.9418H15.7917V28.5918C15.7917 28.9335 15.5083 29.2168 15.1667 29.2168C14.825 29.2168 14.5417 28.9335 14.5417 28.5918V27.9418H13.925C13.5833 27.9418 13.3 27.6585 13.3 27.3168C13.3 26.9752 13.5833 26.6918 13.925 26.6918H14.5417V26.1002C14.5417 25.7585 14.825 25.4752 15.1667 25.4752C15.5083 25.4752 15.7917 25.7585 15.7917 26.1002V26.6918H16.4083C16.75 26.6918 17.0333 26.9752 17.0333 27.3168C17.0333 27.6585 16.7583 27.9418 16.4083 27.9418ZM28.9167 21.9168H26.8333C25.9167 21.9168 25.1667 22.6668 25.1667 23.5835C25.1667 24.5002 25.9167 25.2502 26.8333 25.2502H28.9167C29.15 25.2502 29.3333 25.0668 29.3333 24.8335V22.3335C29.3333 22.1002 29.15 21.9168 28.9167 21.9168ZM24.7743 16.0003C25.0243 16.242 24.816 16.617 24.466 16.617L17.566 16.6086C17.166 16.6086 16.966 16.1253 17.2494 15.842L18.7077 14.3753C19.941 13.1503 21.9327 13.1503 23.166 14.3753L24.741 15.967C24.7493 15.9753 24.766 15.992 24.7743 16.0003Z" fill="white"/>
<path d="M29.2245 27.0502C28.7162 28.7668 27.2495 29.8335 25.2495 29.8335H19.8328C19.5078 29.8335 19.2995 29.4752 19.4328 29.1752C19.6828 28.5918 19.8412 27.9335 19.8412 27.3335C19.8412 24.8085 17.7828 22.7502 15.2578 22.7502C14.6245 22.7502 14.0078 22.8835 13.4411 23.1335C13.1328 23.2668 12.7578 23.0585 12.7578 22.7252V21.5002C12.7578 19.2335 14.1245 17.6502 16.2495 17.3835C16.4578 17.3502 16.6828 17.3335 16.9161 17.3335H25.2495C25.4662 17.3335 25.6745 17.3418 25.8745 17.3752C27.5578 17.5668 28.7745 18.5918 29.2245 20.1168C29.3078 20.3918 29.1078 20.6668 28.8245 20.6668H26.9162C25.1078 20.6668 23.6745 22.3168 24.0662 24.1918C24.3412 25.5585 25.6078 26.5002 26.9995 26.5002H28.8245C29.1162 26.5002 29.3078 26.7835 29.2245 27.0502Z" fill="white"/>
</svg>
