<svg width="42" height="43" viewBox="0 0 42 43" fill="none" xmlns="http://www.w3.org/2000/svg">
<circle cx="21" cy="21.5" r="21" fill="#353255"/>
<path d="M29.3335 20.641V22.3577C29.3335 22.816 28.9668 23.191 28.5002 23.2077H26.8668C25.9668 23.2077 25.1418 22.5493 25.0668 21.6493C25.0168 21.1243 25.2168 20.6327 25.5668 20.291C25.8752 19.9743 26.3002 19.791 26.7668 19.791H28.5002C28.9668 19.8077 29.3335 20.1827 29.3335 20.641Z" fill="#C8EE44"/>
<path d="M28.0583 24.4582H26.8667C25.2833 24.4582 23.95 23.2665 23.8167 21.7498C23.7417 20.8832 24.0583 20.0165 24.6917 19.3998C25.225 18.8498 25.9667 18.5415 26.7667 18.5415H28.0583C28.3 18.5415 28.5 18.3415 28.475 18.0998C28.2917 16.0748 26.95 14.6915 24.9583 14.4582C24.7583 14.4248 24.55 14.4165 24.3333 14.4165H16.8333C16.6 14.4165 16.375 14.4332 16.1583 14.4665C14.0333 14.7332 12.6667 16.3165 12.6667 18.5832V24.4165C12.6667 26.7165 14.5333 28.5832 16.8333 28.5832H24.3333C26.6667 28.5832 28.275 27.1248 28.475 24.8998C28.5 24.6582 28.3 24.4582 28.0583 24.4582ZM21.8333 19.6248H16.8333C16.4917 19.6248 16.2083 19.3415 16.2083 18.9998C16.2083 18.6582 16.4917 18.3748 16.8333 18.3748H21.8333C22.175 18.3748 22.4583 18.6582 22.4583 18.9998C22.4583 19.3415 22.175 19.6248 21.8333 19.6248Z" fill="#C8EE44"/>
</svg>
