<svg width="13" height="13" viewBox="0 0 13 13" fill="none" xmlns="http://www.w3.org/2000/svg">
<path fill-rule="evenodd" clip-rule="evenodd" d="M3.9902 1.28502C3.85819 2.01066 3.10575 6.09819 2.95116 6.9317C2.79657 7.76521 3.45912 8.51232 4.10962 8.51232C4.76012 8.51232 4.8461 8.51232 5.1131 8.51232C5.3801 8.51232 5.77759 8.70693 5.62797 9.41561C5.47834 10.1243 5.32363 10.8533 5.17154 11.5419C5.01946 12.2305 5.78164 12.5082 6.11211 11.9713C6.44258 11.4345 8.90997 7.33717 9.19391 6.78614C9.47785 6.23511 9.01276 5.383 8.31273 5.383C7.61269 5.383 7.32301 5.383 6.95581 5.383C6.58861 5.383 6.53708 5.111 6.67035 4.55067C6.80362 3.99034 6.96386 3.25738 7.21165 2.18322C7.45943 1.10907 6.46094 0.525602 5.93482 0.525602C5.4087 0.525602 4.84301 0.525602 4.68705 0.525602C4.53109 0.525602 4.12221 0.559378 3.9902 1.28502Z" fill="white"/>
</svg>
