<svg width="17" height="17" viewBox="0 0 17 17" fill="none" xmlns="http://www.w3.org/2000/svg">
<path fill-rule="evenodd" clip-rule="evenodd" d="M2.06352 9.03959C2.06352 8.79659 2.26052 8.59959 2.50352 8.59959H13.7035C13.9465 8.59959 14.1435 8.79659 14.1435 9.03959C14.1435 9.2826 13.9465 9.47959 13.7035 9.47959H2.50352C2.26052 9.47959 2.06352 9.2826 2.06352 9.03959Z" fill="#96A2BE"/>
<path fill-rule="evenodd" clip-rule="evenodd" d="M8.41465 3.12847C8.58648 3.3003 8.58648 3.57889 8.41465 3.75072L3.12578 9.0396L8.41465 14.3285C8.58648 14.5003 8.58648 14.7789 8.41465 14.9507C8.24282 15.1226 7.96423 15.1226 7.7924 14.9507L2.1924 9.35072C2.02056 9.17889 2.02056 8.9003 2.1924 8.72847L7.7924 3.12847C7.96423 2.95664 8.24282 2.95664 8.41465 3.12847Z" fill="#96A2BE"/>
</svg>
