<svg width="24" height="24" viewBox="0 0 24 24" fill="none" xmlns="http://www.w3.org/2000/svg">
<path d="M4 4.59084H5.98639C5.98639 4.59084 7.16987 4.52635 7.91824 5.43519L12.2555 10.9417H9.21195C9.21195 10.9417 7.86328 11.0011 7.31693 10.0789L4 4.59084Z" fill="url(#paint0_linear_3646_145857)"/>
<path d="M10.8337 15.934L12.6196 18.9075C12.6196 18.9075 13.276 20.4126 15.4446 20.4126H20.0001L13.549 12.5566L10.8337 13.181C10.8337 13.1808 10.0868 14.172 10.8337 15.934Z" fill="url(#paint1_linear_3646_145857)"/>
<path d="M14.5193 13.7392L13.4738 12.4634L10.839 13.1806C10.839 13.1806 10.0921 14.1718 10.839 15.9338L10.9487 16.1218C10.9399 16.0053 10.8589 14.187 14.5193 13.7392Z" fill="url(#paint2_linear_3646_145857)"/>
<path d="M10.9406 16.1171C10.9406 16.1171 10.1153 13.9802 12.8083 12.9565C12.8083 12.9565 14.7266 12.2654 16.0098 12.6751C16.0098 12.6751 15.921 11.1139 12.77 11.2162C12.77 11.2162 11.1061 11.2035 9.79727 11.6642C9.79727 11.6642 8.41234 12.0352 9.44143 13.6346L10.9406 16.1171Z" fill="url(#paint3_linear_3646_145857)"/>
<defs>
<linearGradient id="paint0_linear_3646_145857" x1="12.0001" y1="4.5898" x2="12.0001" y2="20.4124" gradientUnits="userSpaceOnUse">
<stop offset="0.033" stop-color="#19AADE"/>
<stop offset="0.951" stop-color="#134E8E"/>
</linearGradient>
<linearGradient id="paint1_linear_3646_145857" x1="12.0001" y1="4.58984" x2="12.0001" y2="20.4126" gradientUnits="userSpaceOnUse">
<stop offset="0.132" stop-color="#E02527"/>
<stop offset="0.742" stop-color="#A1141C"/>
</linearGradient>
<linearGradient id="paint2_linear_3646_145857" x1="4.00064" y1="12.5015" x2="20.0001" y2="12.5015" gradientUnits="userSpaceOnUse">
<stop offset="0.005" stop-color="#71251D"/>
<stop offset="0.742" stop-color="#C73127"/>
</linearGradient>
<linearGradient id="paint3_linear_3646_145857" x1="9.06128" y1="13.6642" x2="16.01" y2="13.6642" gradientUnits="userSpaceOnUse">
<stop offset="0.148" stop-color="#E8EBEE"/>
<stop offset="0.742" stop-color="#95A5AF"/>
</linearGradient>
</defs>
</svg>
