<svg width="16" height="17" viewBox="0 0 16 17" fill="none" xmlns="http://www.w3.org/2000/svg">
<path d="M13.1647 7.77458H12.7944V4.49659C12.7944 4.25409 12.6981 4.02152 12.5266 3.85004C12.3551 3.67856 12.1226 3.58223 11.8801 3.58223H9.13698C9.10807 3.03187 8.88664 2.50919 8.51141 2.10554C8.13618 1.7019 7.63102 1.44298 7.08423 1.37404C6.77149 1.34184 6.45546 1.37451 6.15591 1.46999C5.85636 1.56547 5.57973 1.72172 5.3433 1.92896C5.10688 2.13621 4.91575 2.39 4.78186 2.67446C4.64797 2.95893 4.5742 3.26796 4.56516 3.58223H1.36489C1.12239 3.58223 0.889818 3.67856 0.718342 3.85004C0.546865 4.02152 0.450531 4.25409 0.450531 4.49659V8.23176H1.73521C2.08699 8.22154 2.43021 8.34132 2.69925 8.56819C2.96829 8.79506 3.1443 9.11313 3.19362 9.46158C3.21142 9.65277 3.18887 9.84556 3.12744 10.0275C3.06602 10.2094 2.96707 10.3764 2.83702 10.5177C2.7092 10.6606 2.55283 10.7751 2.37801 10.8539C2.2032 10.9326 2.01381 10.9738 1.82208 10.9749H0.450531V15.0118C0.450531 15.2543 0.546865 15.4868 0.718342 15.6583C0.889818 15.8298 1.12239 15.9261 1.36489 15.9261H11.8801C12.1226 15.9261 12.3551 15.8298 12.5266 15.6583C12.6981 15.4868 12.7944 15.2543 12.7944 15.0118V12.3464H13.2516C13.5725 12.3481 13.8901 12.2822 14.1838 12.153C14.4775 12.0238 14.7407 11.8343 14.9564 11.5967C15.172 11.359 15.3352 11.0787 15.4353 10.7739C15.5354 10.469 15.5703 10.1465 15.5375 9.82733C15.4634 9.25336 15.1805 8.72679 14.7429 8.34815C14.3052 7.96951 13.7434 7.76533 13.1647 7.77458V7.77458ZM14.2666 10.9749C14.1387 11.1178 13.9824 11.2323 13.8076 11.311C13.6327 11.3898 13.4433 11.431 13.2516 11.432H11.8801V15.0118H1.36489V11.8892H1.82208C2.14293 11.8909 2.46055 11.825 2.75426 11.6958C3.04798 11.5667 3.3112 11.3771 3.52683 11.1395C3.74245 10.9019 3.90563 10.6215 4.00576 10.3167C4.10588 10.0118 4.14072 9.68933 4.10798 9.37015C4.03389 8.79618 3.751 8.26961 3.31333 7.89097C2.87566 7.51233 2.31386 7.30814 1.73521 7.3174H1.36489V4.49659H5.47953V3.65995C5.48056 3.46822 5.52178 3.27883 5.60052 3.10401C5.67927 2.92919 5.7938 2.77283 5.93671 2.64501C6.07797 2.51495 6.24497 2.41601 6.42689 2.35458C6.60882 2.29315 6.80161 2.27061 6.9928 2.2884C7.34126 2.33773 7.65932 2.51373 7.88619 2.78278C8.11306 3.05182 8.23284 3.39503 8.22262 3.74681V4.49659H11.8801V8.68895H13.1647C13.5165 8.67873 13.8597 8.7985 14.1288 9.02537C14.3978 9.25225 14.5738 9.57031 14.6232 9.91876C14.641 10.11 14.6184 10.3027 14.557 10.4847C14.4956 10.6666 14.3966 10.8336 14.2666 10.9749Z" fill="#457EFF"/>
</svg>
