<svg width="16" height="17" viewBox="0 0 16 17" fill="none" xmlns="http://www.w3.org/2000/svg">
<path d="M4.05797 1.81794C3.80423 1.64878 3.47833 1.63181 3.20839 1.7737V1.7737C2.93451 1.91767 2.763 2.20158 2.763 2.51099V15.0972C2.763 15.4052 2.93215 15.6884 3.20338 15.8345V15.8345C3.47597 15.9812 3.8073 15.9656 4.06489 15.7939L13.4474 9.53889C13.6917 9.37603 13.8384 9.10184 13.8384 8.80823V8.80823C13.8384 8.51462 13.6917 8.24044 13.4474 8.07757L4.05797 1.81794ZM4.2063 14.3372C4.07338 14.4257 3.89546 14.3304 3.89546 14.1707V3.44617C3.89546 3.2864 4.07354 3.19113 4.20645 3.27979L12.2525 8.64735C12.3712 8.72657 12.3712 8.9011 12.2523 8.98021L4.2063 14.3372Z" fill="#457EFF"/>
</svg>
