<svg width="16" height="17" viewBox="0 0 16 17" fill="none" xmlns="http://www.w3.org/2000/svg">
<path fill-rule="evenodd" clip-rule="evenodd" d="M2.36083 2.12759H13.6392C14.081 2.12759 14.4392 2.48576 14.4392 2.92759V3.55674H1.56083V2.92759C1.56083 2.48576 1.91901 2.12759 2.36083 2.12759ZM1.56083 4.35674V9.12798H14.4392V4.35674H1.56083ZM1.56083 14.1437V9.92798H5.92914V14.9437H2.36083C1.91901 14.9437 1.56083 14.5855 1.56083 14.1437ZM6.72914 14.9437H13.6392C14.081 14.9437 14.4392 14.5855 14.4392 14.1437V9.92798H6.72914L6.72914 14.9437ZM0.760834 2.92759C0.760834 2.04393 1.47718 1.32759 2.36083 1.32759H13.6392C14.5228 1.32759 15.2392 2.04393 15.2392 2.92759V14.1437C15.2392 15.0273 14.5228 15.7437 13.6392 15.7437H2.36083C1.47718 15.7437 0.760834 15.0273 0.760834 14.1437V2.92759ZM8.18959 11.0252C7.96868 11.0252 7.78959 11.2043 7.78959 11.4252C7.78959 11.6461 7.96868 11.8252 8.18959 11.8252H13.4612C13.6821 11.8252 13.8612 11.6461 13.8612 11.4252C13.8612 11.2043 13.6821 11.0252 13.4612 11.0252H8.18959ZM7.78959 13.2143C7.78959 12.9934 7.96868 12.8143 8.18959 12.8143H11.2194C11.4403 12.8143 11.6194 12.9934 11.6194 13.2143C11.6194 13.4353 11.4403 13.6143 11.2194 13.6143H8.18959C7.96868 13.6143 7.78959 13.4353 7.78959 13.2143Z" fill="#457EFF"/>
</svg>
