<svg width="16" height="17" viewBox="0 0 16 17" fill="none" xmlns="http://www.w3.org/2000/svg">
<path fill-rule="evenodd" clip-rule="evenodd" d="M7.78535 1.57881C7.92049 1.51125 8.07954 1.51125 8.21468 1.57881L14.6338 4.78837C14.7964 4.86968 14.8991 5.03589 14.8991 5.2177C14.8991 5.39951 14.7964 5.56572 14.6338 5.64702L8.21468 8.85659C8.07954 8.92415 7.92049 8.92415 7.78535 8.85659L1.36623 5.64702C1.20361 5.56572 1.10089 5.39951 1.10089 5.2177C1.10089 5.03589 1.20361 4.86968 1.36623 4.78837L7.78535 1.57881ZM2.6542 5.2177L8.00002 7.8906L13.3458 5.2177L8.00002 2.54479L2.6542 5.2177Z" fill="#457EFF"/>
<path fill-rule="evenodd" clip-rule="evenodd" d="M1.15155 11.4221C1.2701 11.185 1.55843 11.0889 1.79554 11.2075L8 14.3097L14.2045 11.2075C14.4416 11.0889 14.7299 11.185 14.8484 11.4221C14.967 11.6593 14.8709 11.9476 14.6338 12.0661L8.21466 15.2757C8.07953 15.3433 7.92047 15.3433 7.78533 15.2757L1.36621 12.0661C1.1291 11.9476 1.03299 11.6593 1.15155 11.4221Z" fill="#457EFF"/>
<path fill-rule="evenodd" clip-rule="evenodd" d="M1.15155 8.21261C1.2701 7.9755 1.55843 7.8794 1.79554 7.99795L8 11.1002L14.2045 7.99795C14.4416 7.8794 14.7299 7.9755 14.8484 8.21261C14.967 8.44972 14.8709 8.73805 14.6338 8.8566L8.21466 12.0662C8.07953 12.1337 7.92047 12.1337 7.78533 12.0662L1.36621 8.8566C1.1291 8.73805 1.03299 8.44972 1.15155 8.21261Z" fill="#457EFF"/>
</svg>
