<svg width="16" height="17" viewBox="0 0 16 17" fill="none" xmlns="http://www.w3.org/2000/svg">
<path fill-rule="evenodd" clip-rule="evenodd" d="M7.99999 2.55357C4.51658 2.55357 1.69271 5.37743 1.69271 8.86085C1.69271 12.3443 4.51658 15.1681 7.99999 15.1681C11.4834 15.1681 14.3073 12.3443 14.3073 8.86085C14.3073 5.37743 11.4834 2.55357 7.99999 2.55357ZM0.765228 8.86085C0.765228 4.8652 4.00434 1.62608 7.99999 1.62608C11.9956 1.62608 15.2348 4.8652 15.2348 8.86085C15.2348 12.8565 11.9956 16.0956 7.99999 16.0956C4.00434 16.0956 0.765228 12.8565 0.765228 8.86085Z" fill="#457EFF"/>
<path d="M8.25834 5.29429C7.80991 5.21737 7.34874 5.30164 6.95649 5.53217C6.56424 5.7627 6.26624 6.12461 6.11526 6.5538C6.0108 6.85073 5.68541 7.00677 5.38847 6.90231C5.09154 6.79786 4.9355 6.47247 5.03996 6.17553C5.28027 5.4924 5.7546 4.91636 6.37893 4.54943C7.00326 4.18251 7.7373 4.04838 8.45105 4.17081C9.16479 4.29323 9.81218 4.66431 10.2785 5.21832C10.7448 5.77215 11 6.47305 10.9991 7.19696C10.999 8.33162 10.1556 9.10441 9.49704 9.54343C9.15042 9.77451 8.80785 9.94538 8.55419 10.0581L8.50258 10.0808V11.1697C8.50258 11.4845 8.24741 11.7397 7.93264 11.7397C7.61787 11.7397 7.36269 11.4845 7.36269 11.1697V9.69333C7.36269 9.44829 7.51931 9.23072 7.7516 9.1529L7.75436 9.15196L7.76974 9.14657C7.78427 9.1414 7.80709 9.13312 7.83701 9.12172C7.89695 9.09888 7.98483 9.06377 8.09124 9.01648C8.30567 8.92118 8.58723 8.77999 8.86474 8.59498C9.45444 8.20185 9.85919 7.72643 9.85919 7.19683C9.85987 6.74186 9.69951 6.30048 9.4065 5.95241C9.1135 5.60434 8.70676 5.37121 8.25834 5.29429Z" fill="#457EFF"/>
<path fill-rule="evenodd" clip-rule="evenodd" d="M7.41702 12.809C7.41702 12.4876 7.67757 12.227 7.99898 12.227H8.00712C8.32853 12.227 8.58908 12.4876 8.58908 12.809C8.58908 13.1304 8.32853 13.3909 8.00712 13.3909H7.99898C7.67757 13.3909 7.41702 13.1304 7.41702 12.809Z" fill="#457EFF"/>
</svg>
