<svg width="20" height="20" viewBox="0 0 20 20" fill="none" xmlns="http://www.w3.org/2000/svg">
<path d="M13.15 1.6665H6.84999C3.69999 1.6665 2.91666 2.50817 2.91666 5.8665V15.2498C2.91666 17.4665 4.13332 17.9915 5.60832 16.4082L5.61666 16.3998C6.29999 15.6748 7.34166 15.7332 7.93332 16.5248L8.77499 17.6498C9.44999 18.5415 10.5417 18.5415 11.2167 17.6498L12.0583 16.5248C12.6583 15.7248 13.7 15.6665 14.3833 16.3998C15.8667 17.9832 17.075 17.4582 17.075 15.2415V5.8665C17.0833 2.50817 16.3 1.6665 13.15 1.6665ZM12.2917 8.95817H7.70832C7.36666 8.95817 7.08332 8.67484 7.08332 8.33317C7.08332 7.9915 7.36666 7.70817 7.70832 7.70817H12.2917C12.6333 7.70817 12.9167 7.9915 12.9167 8.33317C12.9167 8.67484 12.6333 8.95817 12.2917 8.95817Z" fill="#929EAE"/>
</svg>
