<svg width="35" height="46" viewBox="0 0 35 46" fill="none" xmlns="http://www.w3.org/2000/svg">
<path fill-rule="evenodd" clip-rule="evenodd" d="M34.5003 25.9753C34.6779 24.9919 34.7671 23.9951 34.7668 22.9965C34.7668 22.3816 34.7328 21.8028 34.6673 21.2506C34.6533 21.1308 32.6708 25.1056 29.499 27.6232C31.7055 25.6899 34.5837 20.6459 34.5431 20.4271C34.5082 20.2373 34.4688 20.0484 34.4249 19.8604C34.0457 18.2334 33.3618 16.7872 32.4298 15.2149C32.141 18.5515 31.1317 22.106 28.4836 25.1796C31.2319 21.9543 32.1881 14.6081 31.5332 13.5965C28.8972 9.55451 23.3466 6.01685 17.4042 6.01685L17.3624 6.12351V6.02432C11.4198 6.02432 5.86962 9.56178 3.23362 13.6035C2.57854 14.6152 3.53474 21.9614 6.283 25.1867C3.63511 22.1131 2.62565 18.5586 2.33706 15.222C1.40442 16.7944 0.720906 18.2402 0.341696 19.8674C0.29781 20.0554 0.2584 20.2444 0.223498 20.4342C0.182967 20.6529 3.06131 25.697 5.26781 27.6303C2.09578 25.1124 0.113364 21.1377 0.0991467 21.2576C0.0316613 21.8373 -0.00142737 22.4202 4.71829e-05 23.0035C4.71829e-05 24.0198 0.091295 25.0151 0.266364 25.9824C0.428276 26.877 4.11491 29.3401 4.2104 29.4175C1.53259 28.3944 0.427003 26.7853 0.527588 27.174C2.42852 34.5351 9.24474 39.983 17.3624 39.983V39.9753L17.4042 39.9757C25.5219 39.9757 32.3381 34.5282 34.2388 27.1667C34.3396 26.778 33.2342 28.3871 30.5562 29.4102C30.6515 29.333 34.3381 26.8701 34.5003 25.9753V25.9753ZM23.0168 26.629C22.8415 26.7035 22.6641 26.7676 22.4825 26.8158C20.8179 27.2592 18.5036 27.0963 17.4216 25.714C16.3271 24.3157 16.6301 22.0475 17.481 20.6158C18.3402 19.1704 19.63 18.0962 20.7761 16.8797C21.3252 16.2993 21.8847 15.7284 22.4543 15.1672C22.8239 14.8014 23.8327 14.0173 23.8119 13.4944C23.8024 13.2468 23.3423 12.8106 23.2144 12.5763C23.0278 12.2349 22.9113 11.8929 22.7117 11.5677C22.2699 10.8497 21.6767 10.5207 20.878 10.3668C19.8796 10.1744 19.1634 10.2601 18.3364 10.8017C17.7142 11.2093 17.0666 11.9693 16.3067 12.0494C15.106 12.176 9.87753 13.0237 9.62989 13.1769C10.2748 13.1302 18.1586 13.2794 19.0518 13.4944C20.102 13.7471 20.0544 14.5747 19.3414 15.2257C17.0991 17.2726 13.7959 18.4907 12.3877 21.307C11.729 22.6238 11.3065 23.5153 11.3048 25.0553C11.3042 25.6899 11.3549 26.9922 12.1566 28.6092C12.1195 28.5853 10.8895 27.1667 10.8401 25.9666C7.87305 24.0262 6.36406 21.1246 6.36406 17.3485C6.36406 11.3629 11.2798 6.51034 17.3435 6.51034C23.4073 6.51034 28.3228 11.3627 28.3228 17.3485C28.3232 21.2846 26.6026 24.9256 23.0168 26.629V26.629Z" fill="#B4282E"/>
<path fill-rule="evenodd" clip-rule="evenodd" d="M17.8187 29.917L16.3863 33.7659C15.5607 35.9842 12.0559 35.5181 11.9326 35.5181C11.6446 35.5181 11.4244 35.4869 11.2041 35.2834L11.7287 34.7123C11.8537 34.8063 12.0493 34.8611 12.2492 34.8611C12.4126 34.8611 14.2134 35.2433 14.7503 33.7659L16.1826 29.917H17.8187V29.917ZM27.9337 34.7436L27.692 35.3929H22.7639L24.802 29.917H26.4557L24.6589 34.7436H27.9337V34.7436ZM20.5869 29.9307L16.2208 35.4062H17.0688L18.174 33.9199H20.1517L19.8222 35.4062H21.5641L22.9021 29.9307H20.5869V29.9307ZM18.7495 33.1434L21.002 30.4476L20.3815 33.1434H18.7495V33.1434Z" fill="white"/>
</svg>
