<svg width="502" height="902" viewBox="0 0 502 902" fill="none" xmlns="http://www.w3.org/2000/svg">
<g opacity="0.5">
<path opacity="0.06" fill-rule="evenodd" clip-rule="evenodd" d="M128.869 127.778C119.575 177.016 66.6021 454.372 55.7185 510.93C44.8349 567.487 91.4804 618.182 137.277 618.182C183.073 618.182 189.127 618.182 207.924 618.182C226.721 618.182 254.705 631.386 244.172 679.473C233.638 727.56 222.746 777.029 212.039 823.753C201.331 870.477 254.991 889.317 278.256 852.89C301.522 816.464 475.232 538.442 495.222 501.052C515.212 463.663 482.469 405.844 433.185 405.844C383.9 405.844 363.507 405.844 337.655 405.844C311.803 405.844 308.175 387.387 317.558 349.366C326.94 311.346 338.222 261.612 355.666 188.725C373.111 115.839 302.815 76.2489 265.775 76.2489C228.735 76.2489 188.909 76.2489 177.929 76.2489C166.949 76.2489 138.163 78.5407 128.869 127.778Z" fill="#457EFF"/>
<path opacity="0.3" fill-rule="evenodd" clip-rule="evenodd" d="M75.2038 52.5296C65.9099 101.767 12.9368 379.123 2.05321 435.681C-8.83036 492.238 37.8151 542.933 83.6116 542.933C129.408 542.933 135.461 542.933 154.259 542.933C173.056 542.933 201.04 556.137 190.506 604.224C179.973 652.311 169.08 701.78 158.373 748.504C147.666 795.228 201.325 814.068 224.591 777.642C247.857 741.215 421.567 463.193 441.557 425.804C461.546 388.414 428.804 330.595 379.519 330.595C330.235 330.595 309.841 330.595 283.99 330.595C258.138 330.595 254.51 312.138 263.892 274.118C273.275 236.097 284.557 186.363 302.001 113.477C319.446 40.5906 249.149 1 212.109 1C175.07 1 135.244 1 124.264 1C113.284 1 84.4976 3.29179 75.2038 52.5296Z" stroke="#457EFF" stroke-width="0.7"/>
</g>
</svg>
