<svg width="170" height="394" viewBox="0 0 170 394" fill="none" xmlns="http://www.w3.org/2000/svg">
<g opacity="0.5">
<path opacity="0.06" fill-rule="evenodd" clip-rule="evenodd" d="M-20.4428 65.1671C-25.1726 90.1612 -52.1316 230.952 -57.6704 259.662C-63.2092 288.371 -39.4706 314.105 -16.1639 314.105C7.14267 314.105 10.2233 314.105 19.7895 314.105C29.3557 314.105 43.5974 320.808 38.2366 345.218C32.8758 369.628 27.3326 394.739 21.8835 418.457C16.4344 442.175 43.7426 451.738 55.5829 433.248C67.4232 414.757 155.827 273.628 166 254.648C176.174 235.668 159.51 206.318 134.429 206.318C109.347 206.318 98.9683 206.318 85.8119 206.318C72.6554 206.318 70.809 196.949 75.584 177.649C80.3589 158.349 86.1004 133.103 94.9782 96.105C103.856 59.1067 68.081 39.0098 49.2308 39.0098C30.3806 39.0098 10.1127 39.0098 4.52475 39.0098C-1.06317 39.0098 -15.7131 40.1731 -20.4428 65.1671Z" fill="#457EFF"/>
<path opacity="0.3" fill-rule="evenodd" clip-rule="evenodd" d="M-47.754 26.9694C-52.4838 51.9634 -79.4428 192.755 -84.9816 221.464C-90.5204 250.174 -66.7817 275.907 -43.4751 275.907C-20.1685 275.907 -17.0879 275.907 -7.52168 275.907C2.04453 275.907 16.2862 282.61 10.9254 307.02C5.56462 331.43 0.0214129 356.541 -5.42767 380.259C-10.8768 403.977 16.4314 413.541 28.2717 395.05C40.1121 376.559 128.516 235.43 138.689 216.45C148.862 197.471 132.199 168.12 107.117 168.12C82.0358 168.12 71.6571 168.12 58.5007 168.12C45.3443 168.12 43.4978 158.752 48.2728 139.452C53.0477 120.152 58.7892 94.9056 67.667 57.9073C76.5448 20.9089 40.7698 0.812012 21.9196 0.812012C3.06945 0.812012 -17.1985 0.812012 -22.7864 0.812012C-28.3744 0.812012 -43.0242 1.97537 -47.754 26.9694Z" stroke="#457EFF" stroke-width="0.7"/>
</g>
</svg>
