<svg width="20" height="20" viewBox="0 0 20 20" fill="none" xmlns="http://www.w3.org/2000/svg">
<path d="M6.56524 10.0582C6.56524 9.7165 6.84858 9.43317 7.19024 9.43317H11.7569V2.38317C11.7486 1.98317 11.4319 1.6665 11.0319 1.6665C6.12358 1.6665 2.69858 5.0915 2.69858 9.99984C2.69858 14.9082 6.12358 18.3332 11.0319 18.3332C11.4236 18.3332 11.7486 18.0165 11.7486 17.6165V10.6748H7.19024C6.84024 10.6832 6.56524 10.3998 6.56524 10.0582Z" fill="#929EAE"/>
<path d="M17.118 9.61683L14.7513 7.2418C14.5097 7.00013 14.1097 7.00013 13.868 7.2418C13.6263 7.48346 13.6263 7.88346 13.868 8.12513L15.168 9.42516H11.7513V10.6752H15.1597L13.8597 11.9752C13.618 12.2168 13.618 12.6168 13.8597 12.8585C13.9847 12.9835 14.143 13.0418 14.3013 13.0418C14.4597 13.0418 14.618 12.9835 14.743 12.8585L17.1097 10.4835C17.3597 10.2502 17.3597 9.8585 17.118 9.61683Z" fill="#929EAE"/>
</svg>
