<svg width="20" height="20" viewBox="0 0 20 20" fill="none" xmlns="http://www.w3.org/2000/svg">
<path d="M12.375 3.29232V6.45898H11.125V3.29232C11.125 3.06732 10.925 2.95898 10.7917 2.95898C10.75 2.95898 10.7083 2.96732 10.6667 2.98398L4.05834 5.47565C3.61668 5.64232 3.33334 6.05898 3.33334 6.53398V7.09232C2.57501 7.65898 2.08334 8.56733 2.08334 9.59233V6.53398C2.08334 5.54232 2.69168 4.65898 3.61668 4.30898L10.2333 1.80898C10.4167 1.74232 10.6083 1.70898 10.7917 1.70898C11.625 1.70898 12.375 2.38398 12.375 3.29232ZM17.9173 12.0833V12.9167C17.9173 13.1417 17.7423 13.325 17.5089 13.3333H16.2923C15.8506 13.3333 15.4506 13.0083 15.4173 12.575C15.3923 12.3167 15.4923 12.075 15.6589 11.9083C15.8089 11.75 16.0173 11.6667 16.2423 11.6667H17.5006C17.7423 11.675 17.9173 11.8583 17.9173 12.0833Z" fill="#929EAE"/>
<path d="M16.2333 10.7918H17.0833C17.5417 10.7918 17.9167 10.4168 17.9167 9.9585V9.59183C17.9167 7.86683 16.5083 6.4585 14.7833 6.4585H5.21668C4.50834 6.4585 3.85834 6.69183 3.33334 7.09183C2.57501 7.6585 2.08334 8.56683 2.08334 9.59183V15.2002C2.08334 16.9252 3.49168 18.3335 5.21668 18.3335H14.7833C16.5083 18.3335 17.9167 16.9252 17.9167 15.2002V15.0418C17.9167 14.5835 17.5417 14.2085 17.0833 14.2085H16.3583C15.5583 14.2085 14.7917 13.7168 14.5833 12.9418C14.4083 12.3085 14.6167 11.7002 15.0333 11.2918C15.3417 10.9752 15.7667 10.7918 16.2333 10.7918ZM11.6667 10.6252H5.83334C5.49168 10.6252 5.20834 10.3418 5.20834 10.0002C5.20834 9.6585 5.49168 9.37516 5.83334 9.37516H11.6667C12.0083 9.37516 12.2917 9.6585 12.2917 10.0002C12.2917 10.3418 12.0083 10.6252 11.6667 10.6252Z" fill="#929EAE"/>
</svg>
