<svg width="33" height="33" viewBox="0 0 33 33" fill="none" xmlns="http://www.w3.org/2000/svg">
<rect x="0.103516" y="0.811913" width="32" height="32" rx="4" fill="#EBF0FB"/>
<circle cx="16.1035" cy="16.8119" r="12" fill="#F5F8FD"/>
<g clip-path="url(#clip0_1935_1872)">
<path d="M25.0403 16.8101C25.0403 17.9941 23.5575 19.1163 21.2842 19.8121C21.8088 22.1292 21.5756 23.9727 20.5482 24.5629C20.3114 24.7013 20.0346 24.7669 19.7322 24.7669V23.9544C19.8998 23.9544 20.0346 23.9217 20.1475 23.8597C20.643 23.5756 20.8579 22.4935 20.6903 21.1018C20.6503 20.7593 20.5847 20.3987 20.5045 20.0307C19.7905 20.2056 19.0108 20.3404 18.1911 20.4278C17.6992 21.1018 17.1892 21.7139 16.6755 22.2494C17.8632 23.3533 18.978 23.9581 19.7358 23.9581V24.7705C18.7339 24.7705 17.4224 24.0565 16.0962 22.8178C14.7701 24.0492 13.4585 24.756 12.4567 24.756V23.9435C13.2108 23.9435 14.3293 23.3424 15.517 22.2458C15.0069 21.7102 14.4969 21.1018 14.0123 20.4278C13.1889 20.3404 12.4093 20.2056 11.6952 20.0271C11.6114 20.3914 11.5495 20.7448 11.5058 21.0836C11.3345 22.4753 11.5458 23.5573 12.0377 23.8452C12.147 23.9107 12.2891 23.9399 12.4567 23.9399V24.7523C12.1506 24.7523 11.8737 24.6867 11.6333 24.5483C10.6095 23.9581 10.38 22.1183 10.9083 19.8085C8.6422 19.109 7.16669 17.9905 7.16669 16.8101C7.16669 15.626 8.64949 14.5039 10.9229 13.8081C10.3982 11.491 10.6314 9.64752 11.6588 9.05732C11.8956 8.91888 12.1725 8.8533 12.4785 8.8533C13.4804 8.8533 14.792 9.56737 16.1181 10.8061C17.4442 9.57466 18.7558 8.86787 19.7577 8.86787C20.0637 8.86787 20.3406 8.93345 20.581 9.07189C21.6048 9.66209 21.8343 11.5019 21.306 13.8117C23.5648 14.5076 25.0403 15.6297 25.0403 16.8101ZM20.2969 19.2401C20.1621 18.7701 19.9945 18.2856 19.805 17.801C19.6557 18.0925 19.499 18.384 19.3278 18.6754C19.1602 18.9669 18.9817 19.2511 18.8031 19.5279C19.3205 19.4514 19.8196 19.3567 20.2969 19.2401ZM18.6283 15.3601C18.3441 14.8683 18.0526 14.4019 17.7503 13.9684C17.2074 13.921 16.6573 13.8955 16.1035 13.8955C15.5534 13.8955 15.0033 13.921 14.4641 13.9647C14.1617 14.3983 13.8666 14.861 13.5824 15.3492C13.3055 15.8264 13.0541 16.311 12.8246 16.7992C13.0505 17.2874 13.3055 17.7755 13.5788 18.2528C13.8629 18.7446 14.1544 19.211 14.4568 19.6445C14.9996 19.6919 15.5497 19.7174 16.1035 19.7174C16.6536 19.7174 17.2038 19.6919 17.743 19.6482C18.0454 19.2146 18.3405 18.7519 18.6246 18.2637C18.9015 17.7865 19.1529 17.3019 19.3824 16.8137C19.1529 16.3255 18.9015 15.8374 18.6283 15.3601ZM19.805 15.8337C20.0018 15.3455 20.1694 14.8573 20.3078 14.3837C19.8305 14.2671 19.3278 14.1688 18.8068 14.0923C18.9853 14.3728 19.1638 14.6606 19.3314 14.9557C19.499 15.2472 19.6557 15.5423 19.805 15.8337ZM16.1108 11.9464C15.772 12.2961 15.4332 12.686 15.098 13.1122C15.4259 13.0977 15.7611 13.0867 16.0999 13.0867C16.4423 13.0867 16.7812 13.094 17.1127 13.1122C16.7848 12.686 16.446 12.2961 16.1108 11.9464ZM13.4002 14.0923C12.8829 14.1688 12.3838 14.2635 11.9065 14.3801C12.0413 14.85 12.2089 15.3346 12.3984 15.8191C12.5477 15.5277 12.7044 15.2362 12.8756 14.9448C13.0469 14.6533 13.2217 14.3691 13.4002 14.0923ZM16.0926 21.6738C16.4314 21.324 16.7702 20.9342 17.1054 20.508C16.7775 20.5225 16.4423 20.5335 16.1035 20.5335C15.7611 20.5335 15.4222 20.5262 15.0907 20.508C15.4186 20.9342 15.7574 21.324 16.0926 21.6738ZM13.3966 19.5279C13.2181 19.2474 13.0396 18.9596 12.872 18.6645C12.7044 18.373 12.5477 18.0816 12.3984 17.7901C12.2016 18.2783 12.034 18.7665 11.8956 19.2401C12.3729 19.3531 12.8756 19.4514 13.3966 19.5279ZM10.0995 14.9666C8.80979 15.5167 7.97549 16.2381 7.97549 16.8101C7.97549 17.3821 8.80979 18.1071 10.0995 18.6536C10.4128 18.7884 10.7553 18.9086 11.1087 19.0215C11.3163 18.3075 11.5896 17.5642 11.9284 16.8028C11.5932 16.045 11.3236 15.3054 11.1196 14.595C10.7589 14.708 10.4164 14.8318 10.0995 14.9666ZM12.0595 9.76046C11.5641 10.0446 11.3491 11.1267 11.5167 12.5184C11.5568 12.8608 11.6224 13.2215 11.7025 13.5895C12.4166 13.4146 13.1962 13.2798 14.016 13.1924C14.5078 12.5184 15.0178 11.9063 15.5315 11.3708C14.3438 10.2669 13.229 9.6621 12.4712 9.6621C12.3073 9.66574 12.1688 9.69853 12.0595 9.76046ZM20.7013 12.5366C20.8725 11.1449 20.6612 10.0628 20.1694 9.77504C20.0601 9.70946 19.918 9.68031 19.7504 9.68031C18.9962 9.68031 17.8778 10.2814 16.6901 11.3781C17.2001 11.9136 17.7102 12.522 18.1947 13.196C19.0181 13.2835 19.7977 13.4183 20.5118 13.5968C20.5956 13.2288 20.6612 12.8754 20.7013 12.5366ZM22.1039 14.9666C21.7906 14.8318 21.4481 14.7116 21.0947 14.5987C20.8871 15.3127 20.6138 16.0559 20.275 16.8174C20.6102 17.5752 20.8798 18.3147 21.0838 19.0252C21.4445 18.9122 21.7869 18.7884 22.1075 18.6536C23.3972 18.1034 24.2315 17.3821 24.2315 16.8101C24.2279 16.2381 23.3936 15.5131 22.1039 14.9666Z" fill="#3DC3E8"/>
<path d="M16.0999 15.1451C17.0194 15.1451 17.7648 15.8906 17.7648 16.8101C17.7648 17.7296 17.0194 18.475 16.0999 18.475C15.1803 18.475 14.4349 17.7296 14.4349 16.8101C14.4349 15.8906 15.1803 15.1451 16.0999 15.1451Z" fill="#3DC3E8"/>
</g>
<defs>
<clipPath id="clip0_1935_1872">
<rect width="18" height="18" fill="white" transform="translate(7.10352 7.81191)"/>
</clipPath>
</defs>
</svg>
