<svg width="18" height="19" viewBox="0 0 18 19" fill="none" xmlns="http://www.w3.org/2000/svg">
<rect y="0.812012" width="18" height="18" rx="2" fill="#EBF0FB"/>
<path d="M8.52497 7.24465L9.57109 6.19853C9.80005 5.96957 10.0661 5.78219 10.3541 5.6471C10.6421 5.51201 10.9463 5.43185 11.2495 5.41121C11.5527 5.39056 11.8488 5.42982 12.1209 5.52675C12.3931 5.62369 12.636 5.7764 12.8358 5.97616C13.0356 6.17592 13.1883 6.41883 13.2852 6.691C13.3821 6.96318 13.4214 7.2593 13.4007 7.56246C13.3801 7.86561 13.2999 8.16987 13.1649 8.45785C13.0298 8.74583 12.8424 9.0119 12.6134 9.24086L11.5673 10.287M9.47505 12.3792L8.42893 13.4254C8.19997 13.6543 7.9339 13.8417 7.64592 13.9768C7.35794 14.1119 7.05368 14.192 6.75053 14.2127C6.13828 14.2544 5.56767 14.0512 5.16423 13.6477C4.76079 13.2443 4.55757 12.6737 4.59928 12.0614C4.64098 11.4492 4.92419 10.8454 5.3866 10.383L6.43272 9.3369" stroke="#96A2BE" stroke-width="1.1" stroke-linecap="round" stroke-linejoin="round"/>
<path d="M7.78305 11.029L10.2169 8.5951" stroke="#96A2BE" stroke-width="1.1" stroke-linecap="round" stroke-linejoin="round"/>
</svg>
