<svg width="32" height="32" viewBox="0 0 32 32" fill="none" xmlns="http://www.w3.org/2000/svg">
<path d="M21.7604 1.0427C21.1015 0.390368 20.2081 0.0239258 19.2766 0.0239258C18.3451 0.0239258 17.4517 0.390368 16.7928 1.0427L1.36534 16.3277C1.03905 16.651 0.780233 17.0347 0.60365 17.457C0.427068 17.8794 0.336182 18.332 0.336182 18.7891C0.336182 19.2462 0.427068 19.6989 0.60365 20.1212C0.780233 20.5435 1.03905 20.9273 1.36534 21.2505L3.19558 23.0621C3.99202 23.8527 5.11172 23.7119 5.78791 23.3128C6.16092 23.0933 6.59707 23.0033 7.0275 23.0568C7.45793 23.1102 7.85811 23.3042 8.16486 23.6081C8.4716 23.912 8.66743 24.3085 8.72142 24.7349C8.77542 25.1613 8.68449 25.5934 8.46301 25.9629C8.06167 26.6328 7.918 27.742 8.716 28.531L10.5478 30.3442C10.8741 30.6674 11.2614 30.9238 11.6877 31.0988C12.114 31.2737 12.571 31.3637 13.0324 31.3637C13.4938 31.3637 13.9507 31.2737 14.377 31.0988C14.8033 30.9238 15.1907 30.6674 15.517 30.3442L30.9429 15.0622C31.2692 14.739 31.528 14.3553 31.7046 13.9329C31.8812 13.5106 31.972 13.058 31.972 12.6009C31.972 12.1437 31.8812 11.6911 31.7046 11.2688C31.528 10.8464 31.2692 10.4627 30.9429 10.1395L29.1142 8.3263C28.3178 7.53729 27.1965 7.67653 26.5203 8.07567C26.1473 8.29509 25.7112 8.38516 25.2807 8.33167C24.8503 8.27819 24.4501 8.08418 24.1434 7.7803C23.8366 7.47642 23.6408 7.07997 23.5868 6.65356C23.5328 6.22715 23.6237 5.79507 23.8452 5.42555C24.2481 4.75566 24.3902 3.64642 23.5922 2.85741L21.762 1.0427H21.7604Z" fill="white"/>
</svg>
