<svg width="20" height="20" viewBox="0 0 20 20" fill="none" xmlns="http://www.w3.org/2000/svg">
<path d="M13.4917 1.6665H6.50832C3.47499 1.6665 1.66666 3.47484 1.66666 6.50817V13.4832C1.66666 16.5248 3.47499 18.3332 6.50832 18.3332H13.4833C16.5167 18.3332 18.325 16.5248 18.325 13.4915V6.50817C18.3333 3.47484 16.525 1.6665 13.4917 1.6665ZM14.3833 8.29984L12.4583 10.7832C12.2167 11.0915 11.875 11.2915 11.4833 11.3332C11.0917 11.3832 10.7083 11.2748 10.4 11.0332L8.87499 9.83317C8.81666 9.78317 8.74999 9.78317 8.71666 9.7915C8.68332 9.7915 8.62499 9.80817 8.57499 9.87484L6.59166 12.4498C6.46666 12.6082 6.28332 12.6915 6.09999 12.6915C5.96666 12.6915 5.83332 12.6498 5.71666 12.5582C5.44166 12.3498 5.39166 11.9582 5.59999 11.6832L7.58332 9.10817C7.82499 8.79984 8.16666 8.59984 8.55832 8.54984C8.94166 8.49984 9.33332 8.60817 9.64166 8.84984L11.1667 10.0498C11.225 10.0998 11.2833 10.0998 11.325 10.0915C11.3583 10.0915 11.4167 10.0748 11.4667 10.0082L13.3917 7.52484C13.6 7.24984 14 7.19984 14.2667 7.4165C14.5417 7.6415 14.5917 8.03317 14.3833 8.29984Z" fill="#929EAE"/>
</svg>
