<svg width="35" height="46" viewBox="0 0 35 46" fill="none" xmlns="http://www.w3.org/2000/svg">
<path fill-rule="evenodd" clip-rule="evenodd" d="M17.384 8.0842C8.7755 8.0842 1.73053 15.2875 1.73053 24.2577C1.73053 33.2272 8.77613 40.4299 17.384 40.4299C25.9911 40.4299 33.036 33.2273 33.036 24.2577C33.036 15.2875 25.9903 8.0842 17.384 8.0842ZM0.176758 24.2577C0.176758 14.5245 7.8415 6.5647 17.384 6.5647C26.9244 6.5647 34.5898 14.5245 34.5898 24.2577C34.5898 33.9903 26.9251 41.9494 17.384 41.9494C7.84229 41.9494 0.176758 33.9904 0.176758 24.2577Z" fill="#CF4037"/>
<path fill-rule="evenodd" clip-rule="evenodd" d="M22.3444 20.5451C21.5874 15.2977 17.164 12.7066 14.4009 11.1544C11.8366 9.7148 9.5407 9.06061 9.48531 9.22936C12.4018 11.5746 14.2745 15.2282 14.2745 19.3332C14.2745 26.0647 9.23534 31.5837 2.8335 32.099L3.23828 32.724C11.4339 31.4476 33.3664 27.3759 33.3664 27.3759L33.4246 26.8974L20.1181 26.4418C21.5867 24.8897 22.5922 22.2549 22.3444 20.5451V20.5451Z" fill="#CF4037"/>
</svg>
