<svg width="17" height="18" fill="none" xmlns="http://www.w3.org/2000/svg"><path d="m16.137 6.354-5-.785L8.904.68a.654.654 0 0 0-.285-.308c-.312-.166-.69-.028-.845.308L5.538 5.57.54 6.354a.614.614 0 0 0-.36.197.71.71 0 0 0-.179.484c.002.18.07.353.19.479l3.617 3.806-.854 5.375a.73.73 0 0 0 .037.371c.044.118.118.22.213.294a.59.59 0 0 0 .663.051l4.472-2.537 4.471 2.537c.122.07.264.094.4.068.343-.063.573-.414.514-.784l-.855-5.375 3.617-3.806a.7.7 0 0 0 .183-.389c.054-.372-.187-.716-.531-.771Z" fill="#FDBF00"/></svg>