<svg width="18" height="18" viewBox="0 0 18 18" fill="none" xmlns="http://www.w3.org/2000/svg">
<path d="M17.123 6.25925L11.8184 5.47502L9.4471 0.584787C9.38233 0.450895 9.27578 0.342507 9.14416 0.276624C8.81406 0.110853 8.41292 0.248995 8.24787 0.584787L5.87658 5.47502L0.572002 6.25925C0.425755 6.2805 0.292043 6.35063 0.18967 6.4569C0.0659074 6.5863 -0.00229171 6.76039 5.88036e-05 6.94091C0.00240931 7.12143 0.0751171 7.29362 0.202206 7.41964L4.04014 11.226L3.13341 16.6008C3.11215 16.7258 3.12575 16.8544 3.17267 16.972C3.2196 17.0895 3.29796 17.1914 3.39889 17.2659C3.49981 17.3405 3.61926 17.3848 3.74368 17.3938C3.8681 17.4029 3.99251 17.3763 4.10282 17.317L8.84749 14.7794L13.5922 17.317C13.7217 17.3871 13.8721 17.4105 14.0163 17.385C14.3798 17.3213 14.6242 16.9706 14.5616 16.6008L13.6548 11.226L17.4928 7.41964C17.5972 7.31551 17.6662 7.17949 17.6871 7.03072C17.7435 6.6588 17.4886 6.3145 17.123 6.25925V6.25925Z" fill="#FDBF00"/>
</svg>
