<svg width="17" height="18" fill="none" xmlns="http://www.w3.org/2000/svg"><path d="m16.136 6.44-4.999-.784L8.903.766a.654.654 0 0 0-.286-.309c-.311-.166-.69-.028-.845.308l-2.234 4.89-5 .785a.614.614 0 0 0-.36.197.71.71 0 0 0-.178.484c.002.18.07.353.19.48l3.617 3.805-.855 5.375a.73.73 0 0 0 .037.372c.045.117.119.219.214.293a.59.59 0 0 0 .663.051l4.471-2.537 4.472 2.537c.122.07.264.094.4.069.342-.064.572-.415.513-.785l-.854-5.374L16.485 7.6a.7.7 0 0 0 .183-.389c.053-.372-.187-.716-.532-.771Z" fill="#FDBF00"/></svg>