<svg width="17" height="18" fill="none" xmlns="http://www.w3.org/2000/svg"><path d="m16.106 6.354-4.99-.785L8.886.68A.653.653 0 0 0 8.6.371c-.31-.166-.688-.028-.843.308l-2.23 4.89-4.99.785a.612.612 0 0 0-.36.197.712.712 0 0 0-.178.484c.002.18.07.353.19.479L3.8 11.32l-.853 5.375a.73.73 0 0 0 .037.371c.044.118.118.22.213.294a.587.587 0 0 0 .662.051l4.463-2.537 4.463 2.537c.122.07.263.094.399.068.342-.063.572-.414.513-.784l-.853-5.375 3.61-3.806a.7.7 0 0 0 .182-.389c.053-.372-.186-.716-.53-.771Z" fill="#FDBF00"/></svg>