<svg width="17" height="18" viewBox="0 0 17 18" fill="none" xmlns="http://www.w3.org/2000/svg">
<path d="M16.1058 6.25931L11.1163 5.47509L8.88591 0.584848C8.825 0.450956 8.72477 0.342568 8.60097 0.276685C8.29048 0.110914 7.91317 0.249056 7.75793 0.584848L5.5275 5.47509L0.538023 6.25931C0.400464 6.28056 0.274695 6.3507 0.178403 6.45696C0.0619923 6.58636 -0.00215557 6.76045 5.53105e-05 6.94097C0.00226619 7.12149 0.0706549 7.29368 0.190194 7.4197L3.80015 11.2261L2.94728 16.6009C2.92728 16.7259 2.94007 16.8545 2.98421 16.972C3.02834 17.0896 3.10205 17.1914 3.19698 17.266C3.29191 17.3406 3.40426 17.3849 3.52129 17.3939C3.63832 17.4029 3.75535 17.3763 3.8591 17.3171L8.32192 14.7795L12.7847 17.3171C12.9066 17.3872 13.0481 17.4106 13.1837 17.3851C13.5256 17.3213 13.7555 16.9706 13.6966 16.6009L12.8437 11.2261L16.4536 7.4197C16.5519 7.31557 16.6168 7.17955 16.6364 7.03078C16.6895 6.65886 16.4497 6.31457 16.1058 6.25931Z" fill="#FDBF00"/>
</svg>
