<svg width="17" height="18" viewBox="0 0 17 18" fill="none" xmlns="http://www.w3.org/2000/svg">
<path d="M16.1368 6.35379L11.1377 5.56957L8.903 0.679331C8.84197 0.545439 8.74155 0.43705 8.61751 0.371167C8.30642 0.205396 7.92839 0.343539 7.77285 0.679331L5.53813 5.56957L0.539058 6.35379C0.401234 6.37504 0.275223 6.44518 0.178747 6.55144C0.0621115 6.68084 -0.00215972 6.85493 5.54169e-05 7.03545C0.00227055 7.21598 0.0707908 7.38817 0.19056 7.51419L3.80745 11.3205L2.95295 16.6953C2.93291 16.8204 2.94572 16.949 2.98995 17.0665C3.03417 17.1841 3.10802 17.2859 3.20313 17.3605C3.29825 17.4351 3.41081 17.4794 3.52806 17.4884C3.64532 17.4974 3.76257 17.4708 3.86652 17.4116L8.33792 14.874L12.8093 17.4116C12.9314 17.4817 13.0732 17.5051 13.209 17.4796C13.5516 17.4158 13.782 17.0651 13.7229 16.6953L12.8684 11.3205L16.4853 7.51419C16.5837 7.41005 16.6487 7.27403 16.6684 7.12526C16.7216 6.75334 16.4814 6.40905 16.1368 6.35379V6.35379Z" fill="#FDBF00"/>
</svg>
