<svg width="17" height="18" viewBox="0 0 17 18" fill="none" xmlns="http://www.w3.org/2000/svg">
<path d="M16.1059 6.35379L11.1164 5.56957L8.88598 0.679331C8.82506 0.545439 8.72483 0.43705 8.60103 0.371167C8.29054 0.205396 7.91323 0.343539 7.75799 0.679331L5.52756 5.56957L0.538084 6.35379C0.400525 6.37504 0.274756 6.44518 0.178465 6.55144C0.0620533 6.68084 -0.00209454 6.85493 0.000116346 7.03545C0.00232723 7.21598 0.070716 7.38817 0.190255 7.51419L3.80021 11.3205L2.94734 16.6953C2.92734 16.8204 2.94013 16.949 2.98427 17.0665C3.0284 17.1841 3.10212 17.2859 3.19705 17.3605C3.29198 17.4351 3.40432 17.4794 3.52135 17.4884C3.63838 17.4974 3.75541 17.4708 3.85916 17.4116L8.32198 14.874L12.7848 17.4116C12.9066 17.4817 13.0481 17.5051 13.1837 17.4796C13.5257 17.4158 13.7556 17.0651 13.6966 16.6953L12.8438 11.3205L16.4537 7.51419C16.552 7.41005 16.6168 7.27403 16.6365 7.12526C16.6895 6.75334 16.4498 6.40905 16.1059 6.35379V6.35379Z" fill="#FDBF00"/>
</svg>
