<svg width="18" height="18" viewBox="0 0 18 18" fill="none" xmlns="http://www.w3.org/2000/svg">
<path d="M17.0902 6.25925L11.7958 5.47502L9.42902 0.584787C9.36438 0.450895 9.25803 0.342507 9.12666 0.276624C8.79719 0.110853 8.39683 0.248995 8.23209 0.584787L5.86534 5.47502L0.570907 6.25925C0.42494 6.2805 0.291484 6.35063 0.189308 6.4569C0.0657813 6.5863 -0.00228732 6.76039 5.86911e-05 6.94091C0.0024047 7.12143 0.0749734 7.29362 0.201819 7.41964L4.03241 11.226L3.12742 16.6008C3.10619 16.7258 3.11977 16.8544 3.1666 16.972C3.21344 17.0895 3.29165 17.1914 3.39238 17.2659C3.49312 17.3405 3.61233 17.3848 3.73651 17.3938C3.8607 17.4029 3.98488 17.3763 4.09497 17.317L8.83056 14.7794L13.5661 17.317C13.6954 17.3871 13.8456 17.4105 13.9895 17.385C14.3523 17.3213 14.5963 16.9706 14.5337 16.6008L13.6287 11.226L17.4593 7.41964C17.5636 7.31551 17.6324 7.17949 17.6532 7.03072C17.7095 6.6588 17.4551 6.3145 17.0902 6.25925V6.25925Z" fill="#FDBF00"/>
</svg>
