<svg width="17" height="18" fill="none" xmlns="http://www.w3.org/2000/svg"><path d="m16.137 6.26-5-.785L8.904.585a.654.654 0 0 0-.285-.308c-.312-.166-.69-.028-.845.308l-2.235 4.89L.54 6.26a.614.614 0 0 0-.36.198.71.71 0 0 0-.179.484c.002.18.07.353.19.479l3.617 3.806-.854 5.375a.729.729 0 0 0 .037.371c.044.118.118.22.213.294a.591.591 0 0 0 .663.051l4.472-2.537 4.471 2.537c.122.07.264.094.4.068.343-.064.573-.414.514-.784l-.855-5.375 3.617-3.806a.7.7 0 0 0 .183-.39c.054-.371-.187-.715-.531-.77Z" fill="#FDBF00"/></svg>