<svg width="17" height="18" viewBox="0 0 17 18" fill="none" xmlns="http://www.w3.org/2000/svg">
<path d="M16.1059 6.35379L11.1164 5.56957L8.886 0.679331C8.82508 0.545439 8.72486 0.43705 8.60106 0.371167C8.29057 0.205396 7.91326 0.343539 7.75802 0.679331L5.52759 5.56957L0.538115 6.35379C0.400555 6.37504 0.274787 6.44518 0.178495 6.55144C0.0620838 6.68084 -0.00206402 6.85493 0.000146863 7.03545C0.00235775 7.21598 0.0707465 7.38817 0.190286 7.51419L3.80024 11.3205L2.94737 16.6953C2.92737 16.8204 2.94016 16.949 2.9843 17.0665C3.02843 17.1841 3.10215 17.2859 3.19708 17.3605C3.29201 17.4351 3.40435 17.4794 3.52138 17.4884C3.63841 17.4974 3.75544 17.4708 3.85919 17.4116L8.32201 14.874L12.7848 17.4116C12.9067 17.4817 13.0482 17.5051 13.1838 17.4796C13.5257 17.4158 13.7556 17.0651 13.6967 16.6953L12.8438 11.3205L16.4537 7.51419C16.552 7.41005 16.6168 7.27403 16.6365 7.12526C16.6896 6.75334 16.4498 6.40905 16.1059 6.35379V6.35379Z" fill="#FDBF00"/>
</svg>
