<svg width="36" height="21" viewBox="0 0 36 21" fill="none" xmlns="http://www.w3.org/2000/svg">
<path d="M30.1556 11.7852H28.0615C28.2031 11.4479 28.5369 10.6322 29.063 9.33789L29.1085 9.21484C29.149 9.1237 29.1996 9.00521 29.2603 8.85938C29.321 8.71354 29.3665 8.59505 29.3969 8.50391L29.579 9.25586L30.1556 11.7852ZM8.24305 10.8965L7.36291 6.86328C7.25162 6.37109 6.87225 6.125 6.22479 6.125H2.15792L2.12757 6.30273C5.27383 7.02279 7.31232 8.55404 8.24305 10.8965ZM10.9594 6.125L8.50102 12.1133L8.24305 10.8965C7.98002 10.2585 7.55006 9.66829 6.95318 9.12598C6.35631 8.58366 5.69367 8.18034 4.96527 7.91602L7.01388 14.8887H9.66949L13.6301 6.125H10.9594ZM13.0687 14.9023H15.5877L17.1659 6.125H14.6469L13.0687 14.9023ZM24.723 6.34375C24.0249 6.09766 23.2713 5.97461 22.4619 5.97461C21.2176 5.97461 20.2009 6.24349 19.4118 6.78125C18.6227 7.31901 18.2231 8.01628 18.213 8.87305C18.2028 9.80273 18.9363 10.5957 20.4133 11.252C20.8989 11.4616 21.2378 11.6484 21.43 11.8125C21.6223 11.9766 21.7184 12.1543 21.7184 12.3457C21.7184 12.6191 21.5666 12.8288 21.2631 12.9746C20.9596 13.1204 20.6106 13.1934 20.216 13.1934C19.346 13.1934 18.5569 13.043 17.8488 12.7422L17.5149 12.5918L17.1659 14.5605C17.9145 14.8704 18.8503 15.0254 19.9732 15.0254C21.2884 15.0345 22.3431 14.7656 23.1372 14.2188C23.9314 13.6719 24.3386 12.9427 24.3588 12.0312C24.3588 11.0651 23.6506 10.2721 22.2343 9.65234C21.7386 9.42448 21.3795 9.23307 21.1569 9.07812C20.9343 8.92318 20.823 8.75 20.823 8.55859C20.823 8.35807 20.947 8.18262 21.1948 8.03223C21.4427 7.88184 21.7993 7.80664 22.2647 7.80664C22.9728 7.79753 23.6 7.9069 24.1463 8.13477L24.374 8.24414L24.723 6.34375ZM31.1723 6.125H29.2299C28.5724 6.125 28.1323 6.37109 27.9097 6.86328L24.1767 14.9023H26.8171L27.3482 13.5898H30.5653C30.6159 13.7904 30.7171 14.2279 30.8688 14.9023H33.2058L31.1723 6.125ZM35.1481 1.75V19.25C35.1481 19.724 34.9559 20.1341 34.5715 20.4805C34.1871 20.8268 33.7318 21 33.2058 21H2.12757C1.6015 21 1.14626 20.8268 0.761827 20.4805C0.377396 20.1341 0.185181 19.724 0.185181 19.25V1.75C0.185181 1.27604 0.377396 0.865885 0.761827 0.519531C1.14626 0.173177 1.6015 0 2.12757 0H33.2058C33.7318 0 34.1871 0.173177 34.5715 0.519531C34.9559 0.865885 35.1481 1.27604 35.1481 1.75Z" fill="white"/>
</svg>
