<svg width="25" height="26" viewBox="0 0 25 26" fill="none" xmlns="http://www.w3.org/2000/svg">
<path d="M12.5 23.1904C9.76733 23.1904 7.14661 22.1049 5.21434 20.1726C3.28207 18.2403 2.19653 15.6196 2.19653 12.887C2.19653 10.1543 3.28207 7.5336 5.21434 5.60133C7.14661 3.66906 9.76733 2.58352 12.5 2.58352C15.2326 2.58352 17.8533 3.66906 19.7856 5.60133C21.7179 7.5336 22.8034 10.1543 22.8034 12.887C22.8034 15.6196 21.7179 18.2403 19.7856 20.1726C17.8533 22.1049 15.2326 23.1904 12.5 23.1904ZM12.5 24.6623C15.623 24.6623 18.6181 23.4217 20.8264 21.2134C23.0347 19.0051 24.2753 16.01 24.2753 12.887C24.2753 9.76394 23.0347 6.76883 20.8264 4.56053C18.6181 2.35222 15.623 1.1116 12.5 1.1116C9.37695 1.1116 6.38184 2.35222 4.17353 4.56053C1.96522 6.76883 0.724609 9.76394 0.724609 12.887C0.724609 16.01 1.96522 19.0051 4.17353 21.2134C6.38184 23.4217 9.37695 24.6623 12.5 24.6623Z" fill="#1262AF"/>
<path d="M9.87149 7.88682C10.0103 7.81532 10.1662 7.78351 10.322 7.79489C10.4778 7.80627 10.6274 7.86041 10.7544 7.95134L16.6967 12.1959C16.8068 12.2744 16.8965 12.3781 16.9584 12.4983C17.0202 12.6185 17.0525 12.7517 17.0525 12.8869C17.0525 13.0221 17.0202 13.1553 16.9584 13.2755C16.8965 13.3957 16.8068 13.4994 16.6967 13.5779L10.7544 17.8225C10.6274 17.9133 10.4779 17.9674 10.3222 17.9788C10.1665 17.9902 10.0107 17.9584 9.87189 17.887C9.73308 17.8156 9.61666 17.7073 9.53541 17.574C9.45417 17.4407 9.41125 17.2876 9.41138 17.1315V8.64235C9.41121 8.48629 9.45407 8.3332 9.53524 8.19992C9.61641 8.06663 9.73276 7.95829 9.87149 7.88682Z" fill="#1262AF"/>
</svg>
