<svg width="25" height="25" viewBox="0 0 25 25" fill="none" xmlns="http://www.w3.org/2000/svg">
<g clip-path="url(#clip0_1702_1987)">
<path d="M12.8732 22.619C10.2499 22.619 7.73396 21.5769 5.87899 19.7219C4.02401 17.8669 2.98189 15.351 2.98189 12.7277C2.98189 10.1043 4.02401 7.58846 5.87899 5.73348C7.73396 3.8785 10.2499 2.83638 12.8732 2.83638C15.4965 2.83638 18.0124 3.8785 19.8674 5.73348C21.7224 7.58846 22.7645 10.1043 22.7645 12.7277C22.7645 15.351 21.7224 17.8669 19.8674 19.7219C18.0124 21.5769 15.4965 22.619 12.8732 22.619ZM12.8732 24.032C15.8713 24.032 18.7466 22.841 20.8666 20.7211C22.9865 18.6011 24.1775 15.7258 24.1775 12.7277C24.1775 9.72958 22.9865 6.85428 20.8666 4.73431C18.7466 2.61433 15.8713 1.42334 12.8732 1.42334C9.87509 1.42334 6.99979 2.61433 4.87981 4.73431C2.75984 6.85428 1.56885 9.72958 1.56885 12.7277C1.56885 15.7258 2.75984 18.6011 4.87981 20.7211C6.99979 22.841 9.87509 24.032 12.8732 24.032Z" fill="#1262AF"/>
<path d="M10.3499 7.92733C10.4832 7.85869 10.6329 7.82815 10.7824 7.83908C10.9319 7.85001 11.0756 7.90198 11.1975 7.98927L16.9021 12.064C17.0078 12.1394 17.0939 12.239 17.1533 12.3543C17.2127 12.4697 17.2437 12.5976 17.2437 12.7274C17.2437 12.8572 17.2127 12.9851 17.1533 13.1005C17.0939 13.2159 17.0078 13.3154 16.9021 13.3908L11.1975 17.4656C11.0756 17.5528 10.932 17.6047 10.7826 17.6156C10.6331 17.6266 10.4835 17.5961 10.3503 17.5275C10.217 17.4589 10.1053 17.355 10.0273 17.227C9.94928 17.099 9.90808 16.952 9.9082 16.8022V8.65264C9.90805 8.50282 9.94919 8.35586 10.0271 8.22791C10.105 8.09995 10.2167 7.99595 10.3499 7.92733Z" fill="#1262AF"/>
</g>
<defs>
<clipPath id="clip0_1702_1987">
<rect width="24" height="24" fill="white" transform="translate(0.873047 0.727539)"/>
</clipPath>
</defs>
</svg>
