<svg width="25" height="26" viewBox="0 0 25 26" fill="none" xmlns="http://www.w3.org/2000/svg">
<path d="M12.5 23.1044C9.76733 23.1044 7.14661 22.0189 5.21434 20.0866C3.28207 18.1544 2.19653 15.5336 2.19653 12.801C2.19653 10.0684 3.28207 7.44763 5.21434 5.51536C7.14661 3.58309 9.76733 2.49755 12.5 2.49755C15.2326 2.49755 17.8533 3.58309 19.7856 5.51536C21.7179 7.44763 22.8034 10.0684 22.8034 12.801C22.8034 15.5336 21.7179 18.1544 19.7856 20.0866C17.8533 22.0189 15.2326 23.1044 12.5 23.1044ZM12.5 24.5763C15.623 24.5763 18.6181 23.3357 20.8264 21.1274C23.0347 18.9191 24.2753 15.924 24.2753 12.801C24.2753 9.67797 23.0347 6.68286 20.8264 4.47456C18.6181 2.26625 15.623 1.02563 12.5 1.02563C9.37695 1.02563 6.38184 2.26625 4.17353 4.47456C1.96522 6.68286 0.724609 9.67797 0.724609 12.801C0.724609 15.924 1.96522 18.9191 4.17353 21.1274C6.38184 23.3357 9.37695 24.5763 12.5 24.5763V24.5763Z" fill="#1262AF"/>
<path d="M9.87149 7.80073C10.0103 7.72923 10.1662 7.69742 10.322 7.7088C10.4778 7.72018 10.6274 7.77432 10.7544 7.86525L16.6967 12.1098C16.8068 12.1883 16.8965 12.292 16.9584 12.4122C17.0202 12.5324 17.0525 12.6656 17.0525 12.8008C17.0525 12.936 17.0202 13.0692 16.9584 13.1894C16.8965 13.3096 16.8068 13.4133 16.6967 13.4918L10.7544 17.7364C10.6274 17.8272 10.4779 17.8813 10.3222 17.8927C10.1665 17.9041 10.0107 17.8723 9.87189 17.8009C9.73308 17.7295 9.61666 17.6212 9.53541 17.4879C9.45417 17.3546 9.41125 17.2015 9.41138 17.0454V8.55626C9.41121 8.4002 9.45407 8.24711 9.53524 8.11383C9.61641 7.98054 9.73276 7.8722 9.87149 7.80073V7.80073Z" fill="#1262AF"/>
</svg>
