<svg width="25" height="24" viewBox="0 0 25 24" fill="none" xmlns="http://www.w3.org/2000/svg">
<g clip-path="url(#clip0_1702_1935)">
<path d="M12.8732 21.8914C10.2499 21.8914 7.73396 20.8493 5.87899 18.9943C4.02401 17.1394 2.98189 14.6235 2.98189 12.0001C2.98189 9.37681 4.02401 6.86092 5.87899 5.00594C7.73396 3.15096 10.2499 2.10884 12.8732 2.10884C15.4965 2.10884 18.0124 3.15096 19.8674 5.00594C21.7224 6.86092 22.7645 9.37681 22.7645 12.0001C22.7645 14.6235 21.7224 17.1394 19.8674 18.9943C18.0124 20.8493 15.4965 21.8914 12.8732 21.8914ZM12.8732 23.3045C15.8713 23.3045 18.7466 22.1135 20.8666 19.9935C22.9865 17.8735 24.1775 14.9982 24.1775 12.0001C24.1775 9.00205 22.9865 6.12674 20.8666 4.00677C18.7466 1.88679 15.8713 0.695801 12.8732 0.695801C9.87509 0.695801 6.99979 1.88679 4.87981 4.00677C2.75984 6.12674 1.56885 9.00205 1.56885 12.0001C1.56885 14.9982 2.75984 17.8735 4.87981 19.9935C6.99979 22.1135 9.87509 23.3045 12.8732 23.3045Z" fill="#1262AF"/>
<path d="M10.3499 7.19979C10.4832 7.13115 10.6329 7.10062 10.7824 7.11154C10.9319 7.12247 11.0756 7.17444 11.1975 7.26173L16.9021 11.3365C17.0078 11.4119 17.0939 11.5114 17.1533 11.6268C17.2127 11.7422 17.2437 11.8701 17.2437 11.9999C17.2437 12.1297 17.2127 12.2576 17.1533 12.3729C17.0939 12.4883 17.0078 12.5879 16.9021 12.6632L11.1975 16.738C11.0756 16.8252 10.932 16.8772 10.7826 16.8881C10.6331 16.899 10.4835 16.8685 10.3503 16.8C10.217 16.7314 10.1053 16.6274 10.0273 16.4995C9.94928 16.3715 9.90808 16.2245 9.9082 16.0746V7.9251C9.90805 7.77529 9.94919 7.62832 10.0271 7.50037C10.105 7.37241 10.2167 7.26841 10.3499 7.19979Z" fill="#1262AF"/>
</g>
<defs>
<clipPath id="clip0_1702_1935">
<rect width="24" height="24" fill="white" transform="translate(0.873047)"/>
</clipPath>
</defs>
</svg>
