<svg width="26" height="26" viewBox="0 0 26 26" fill="none" xmlns="http://www.w3.org/2000/svg">
<path d="M13 23.1904C10.2673 23.1904 7.64661 22.1048 5.71434 20.1726C3.78207 18.2403 2.69653 15.6196 2.69653 12.8869C2.69653 10.1543 3.78207 7.53357 5.71434 5.6013C7.64661 3.66903 10.2673 2.58349 13 2.58349C15.7326 2.58349 18.3533 3.66903 20.2856 5.6013C22.2179 7.53357 23.3034 10.1543 23.3034 12.8869C23.3034 15.6196 22.2179 18.2403 20.2856 20.1726C18.3533 22.1048 15.7326 23.1904 13 23.1904ZM13 24.6623C16.123 24.6623 19.1181 23.4217 21.3264 21.2134C23.5347 19.0051 24.7753 16.0099 24.7753 12.8869C24.7753 9.76391 23.5347 6.7688 21.3264 4.56049C19.1181 2.35219 16.123 1.11157 13 1.11157C9.87695 1.11157 6.88184 2.35219 4.67353 4.56049C2.46522 6.7688 1.22461 9.76391 1.22461 12.8869C1.22461 16.0099 2.46522 19.0051 4.67353 21.2134C6.88184 23.4217 9.87695 24.6623 13 24.6623Z" fill="#1262AF"/>
<path d="M10.3712 7.88679C10.5101 7.81529 10.666 7.78348 10.8218 7.79486C10.9775 7.80624 11.1271 7.86038 11.2541 7.95131L17.1965 12.1959C17.3065 12.2744 17.3962 12.3781 17.4581 12.4983C17.52 12.6184 17.5523 12.7517 17.5523 12.8869C17.5523 13.0221 17.52 13.1553 17.4581 13.2755C17.3962 13.3957 17.3065 13.4994 17.1965 13.5779L11.2541 17.8224C11.1272 17.9133 10.9776 17.9674 10.8219 17.9788C10.6663 17.9901 10.5105 17.9584 10.3716 17.887C10.2328 17.8155 10.1164 17.7072 10.0352 17.5739C9.95392 17.4406 9.91101 17.2875 9.91113 17.1314V8.64232C9.91097 8.48626 9.95383 8.33317 10.035 8.19989C10.1162 8.0666 10.2325 7.95826 10.3712 7.88679Z" fill="#1262AF"/>
</svg>
