<svg width="25" height="25" fill="none" xmlns="http://www.w3.org/2000/svg"><g clip-path="url('#clip0_1702_1987')" fill="#1262AF"><path d="M12.873 22.619a9.891 9.891 0 1 1 0-19.783 9.891 9.891 0 0 1 0 19.783Zm0 1.413a11.305 11.305 0 1 0 0-22.61 11.305 11.305 0 0 0 0 22.61Z"/><path d="M10.35 7.927a.815.815 0 0 1 .848.062l5.704 4.075a.815.815 0 0 1 0 1.327l-5.705 4.075a.815.815 0 0 1-1.289-.664v-8.15a.815.815 0 0 1 .442-.725Z"/></g><defs><clipPath id="clip0_1702_1987"><path fill="#fff" transform="translate(.873 .728)" d="M0 0h24v24H0z"/></clipPath></defs></svg>