<svg width="25" height="26" viewBox="0 0 25 26" fill="none" xmlns="http://www.w3.org/2000/svg">
<path d="M12.5 23.1044C9.76733 23.1044 7.14661 22.0189 5.21434 20.0866C3.28207 18.1544 2.19653 15.5336 2.19653 12.801C2.19653 10.0684 3.28207 7.44763 5.21434 5.51536C7.14661 3.58309 9.76733 2.49755 12.5 2.49755C15.2326 2.49755 17.8533 3.58309 19.7856 5.51536C21.7179 7.44763 22.8034 10.0684 22.8034 12.801C22.8034 15.5336 21.7179 18.1544 19.7856 20.0866C17.8533 22.0189 15.2326 23.1044 12.5 23.1044ZM12.5 24.5763C15.623 24.5763 18.6181 23.3357 20.8264 21.1274C23.0347 18.9191 24.2753 15.924 24.2753 12.801C24.2753 9.67797 23.0347 6.68286 20.8264 4.47456C18.6181 2.26625 15.623 1.02563 12.5 1.02563C9.37695 1.02563 6.38184 2.26625 4.17353 4.47456C1.96522 6.68286 0.724609 9.67797 0.724609 12.801C0.724609 15.924 1.96522 18.9191 4.17353 21.1274C6.38184 23.3357 9.37695 24.5763 12.5 24.5763V24.5763Z" fill="#1262AF"/>
<path d="M9.87136 7.80073C10.0102 7.72923 10.1661 7.69742 10.3219 7.7088C10.4776 7.72018 10.6272 7.77432 10.7542 7.86525L16.6966 12.1098C16.8066 12.1883 16.8963 12.292 16.9582 12.4122C17.0201 12.5324 17.0524 12.6656 17.0524 12.8008C17.0524 12.936 17.0201 13.0692 16.9582 13.1894C16.8963 13.3096 16.8066 13.4133 16.6966 13.4918L10.7542 17.7364C10.6273 17.8272 10.4778 17.8813 10.3221 17.8927C10.1664 17.9041 10.0106 17.8723 9.87177 17.8009C9.73296 17.7295 9.61654 17.6212 9.53529 17.4879C9.45405 17.3546 9.41113 17.2015 9.41126 17.0454V8.55626C9.41109 8.4002 9.45395 8.24711 9.53512 8.11383C9.61629 7.98054 9.73263 7.8722 9.87136 7.80073V7.80073Z" fill="#1262AF"/>
</svg>
