<svg width="174" height="33" fill="none" xmlns="http://www.w3.org/2000/svg"><path d="M129.851 8.034c1.363 0 2.601.173 3.713.52 1.112.347 2.051.795 2.816 1.345.478.335.855.706 1.13 1.112.275.407.413.933.413 1.579v12.556l-.006.341c-.04 1.124-.277 2.104-.712 2.941a6.596 6.596 0 0 1-1.955 2.296c-.825.61-1.794 1.058-2.906 1.345-1.112.287-2.302.431-3.569.431-2.177 0-3.887-.293-5.13-.879-1.244-.586-1.866-1.537-1.866-2.852 0-.55.114-1.034.341-1.453.227-.418.484-.735.771-.95a12.07 12.07 0 0 0 2.35.968 9.337 9.337 0 0 0 2.709.395c1.291 0 2.319-.215 3.085-.646.765-.43 1.148-1.124 1.148-2.08v-.575l-.273.112c-.927.356-2.032.534-3.315.534a9.636 9.636 0 0 1-3.067-.484 6.855 6.855 0 0 1-2.547-1.507c-.73-.682-1.316-1.56-1.758-2.637-.442-1.076-.664-2.356-.664-3.838 0-1.46.234-2.727.7-3.803.466-1.076 1.112-1.967 1.937-2.673.825-.705 1.806-1.231 2.942-1.578 1.136-.347 2.374-.52 3.713-.52Zm-96.564.557c2.133 0 3.878.478 5.236 1.435 1.357.957 2.161 2.648 2.41 5.072h-4.556l-.044-.268a3.904 3.904 0 0 0-.596-1.448c-.5-.687-1.274-1.03-2.325-1.03-1.498 0-2.523.743-3.075 2.231-.29.79-.437 1.842-.437 3.153 0 1.248.146 2.252.437 3.011.531 1.416 1.53 2.123 2.997 2.123 1.04 0 1.779-.281 2.216-.843.437-.562.702-1.29.796-2.185h4.541l-.03.311c-.152 1.238-.63 2.414-1.437 3.528-1.394 1.946-3.46 2.919-6.196 2.919-2.736 0-4.749-.812-6.039-2.435s-1.935-3.73-1.935-6.32c0-2.924.713-5.197 2.138-6.82 1.425-1.623 3.392-2.434 5.899-2.434Zm41.331-.047c1.415 0 2.69.265 3.824.796 1.134.53 2.07 1.368 2.809 2.512.666 1.01 1.098 2.18 1.295 3.511.115.78.161 1.904.14 3.371H71.046l.016.296c.11 1.55.641 2.647 1.591 3.294.614.426 1.353.64 2.216.64.916 0 1.66-.26 2.232-.78.312-.282.588-.672.827-1.171h4.541l-.034.233c-.163.934-.678 1.88-1.542 2.841-1.456 1.654-3.496 2.482-6.117 2.482-2.165 0-4.074-.697-5.728-2.092-1.654-1.394-2.481-3.662-2.481-6.804 0-2.944.746-5.202 2.24-6.773 1.492-1.57 3.43-2.356 5.813-2.356Zm31.23-6.25c.526 0 .998.036 1.417.107.418.072.771.216 1.058.43.287.216.508.51.664.88.155.37.233.855.233 1.453V25.97l-.121.021c-.256.046-.604.104-1.045.176a9.703 9.703 0 0 1-1.561.126c-.526 0-.998-.036-1.417-.108a2.415 2.415 0 0 1-1.058-.43 2.075 2.075 0 0 1-.664-.88c-.155-.37-.233-.854-.233-1.452V2.617l.121-.022c.256-.045.604-.104 1.045-.176a9.693 9.693 0 0 1 1.561-.125Zm9.167 6.206c.526 0 .999.036 1.417.108a2.41 2.41 0 0 1 1.058.43c.287.215.509.508.664.879.156.37.233.855.233 1.453v14.6l-.12.023c-.256.045-.605.103-1.046.175a9.69 9.69 0 0 1-1.56.126 8.44 8.44 0 0 1-1.417-.108 2.41 2.41 0 0 1-1.058-.43 2.067 2.067 0 0 1-.664-.88c-.156-.37-.233-.854-.233-1.452V8.823l.12-.022a79.21 79.21 0 0 1 1.046-.175 9.69 9.69 0 0 1 1.56-.126Zm28.559-6.206c.527 0 .999.036 1.417.107.419.072.772.216 1.059.43.287.216.508.51.663.88.156.37.234.855.234 1.453v3.515l.124-.045c.307-.109.738-.231 1.293-.367a8.802 8.802 0 0 1 2.098-.233c2.368 0 4.216.592 5.543 1.775 1.327 1.184 1.991 2.948 1.991 5.292v10.87l-.111.03a9.734 9.734 0 0 1-1.019.185c-.514.072-1.046.108-1.596.108-.527 0-.999-.036-1.418-.108a2.415 2.415 0 0 1-1.058-.43 2.065 2.065 0 0 1-.663-.88c-.156-.37-.234-.854-.234-1.452V15.46l-.004-.221c-.035-.864-.279-1.478-.731-1.842-.49-.395-1.094-.592-1.812-.592-.478 0-.933.06-1.363.18-.43.119-.777.262-1.04.43V25.97l-.111.03a9.784 9.784 0 0 1-1.019.185 11.57 11.57 0 0 1-1.597.108c-.526 0-.998-.036-1.417-.108a2.415 2.415 0 0 1-1.058-.43 2.075 2.075 0 0 1-.664-.88c-.155-.37-.233-.854-.233-1.452V2.617l.12-.022a82.15 82.15 0 0 1 1.046-.176 9.69 9.69 0 0 1 1.56-.125Zm-42.948 1.973.082.139c.135.244.257.55.367.92.131.442.197.902.197 1.38 0 .933-.197 1.597-.592 1.991-.395.395-.927.592-1.596.592H91.55v4.054h7.856l.094.139c.15.242.281.543.39.901.132.43.198.885.198 1.364 0 .909-.197 1.56-.592 1.955-.394.394-.927.592-1.596.592h-6.278v7.57l-.122.03a11.66 11.66 0 0 1-1.116.184c-.562.072-1.118.108-1.668.108-.55 0-1.034-.042-1.453-.125a2.58 2.58 0 0 1-1.058-.449 1.937 1.937 0 0 1-.646-.897c-.144-.382-.215-.885-.215-1.506V7.603l.006-.252c.046-.91.343-1.64.89-2.187.599-.598 1.412-.897 2.44-.897h11.946ZM16.308 3.035v4.042H4.775v5.29h10.097v3.995H4.775v9.645H0V3.035h16.308Zm6.515 5.961v17.01h-4.51V8.997h4.51Zm24.58-5.914v12.39l5.54-6.398h5.508l-5.946 6.508 6.18 10.425h-5.368l-4.073-7.273-1.842 1.92v5.353h-4.37V3.082h4.37Zm17.08-.078v23.003h-4.448V3.004h4.448Zm93.845 1.115c.746-.224 2.018-.274 3.508.385 1.503.665 2.441 1.806 2.813 3.422l8.072.686c.1.006.199.026.298.06.148.053.228.126.295.183.164.14.217.25.295.443.139.345.097.752-.084 1.03-.292.45-.748.74-1.369.872l-6.517 1.385 1.151 5.411c.132.622.423 1.022.873 1.2.45.18 1.033.193 1.75.04a7.316 7.316 0 0 0 1.092-.325c.37-.141.688-.29.954-.446.271.217.518.47.742.76.224.29.384.66.481 1.115.356 1.678-2.285 3.263-4.016 3.575-1.604.288-4.064.527-5.471-3.158-1.406-3.684-3.615-9.86-5.301-15.008-.146-.444-.236-.88-.08-1.24.085-.195.146-.279.514-.39Zm-28.19 8.686c-1.172 0-2.051.329-2.637.986-.586.658-.879 1.597-.879 2.817 0 1.387.293 2.385.879 2.995.586.61 1.333.915 2.242.915.981 0 1.758-.227 2.332-.682v-6.6l-.11-.058a4.3 4.3 0 0 0-.625-.23c-.323-.095-.724-.143-1.202-.143Zm-55.52-.594c-1.03 0-1.828.323-2.395.968s-.923 1.519-1.07 2.621h6.914c-.072-1.175-.429-2.067-1.069-2.676-.64-.609-1.433-.913-2.38-.913ZM22.823 2.863v4.105h-4.51V2.863h4.51ZM115.338.5c1.004 0 1.812.31 2.422.933.609.622.914 1.387.914 2.296 0 .909-.305 1.674-.914 2.296-.61.621-1.418.932-2.422.932-1.004 0-1.812-.31-2.422-.932-.609-.622-.914-1.387-.914-2.296 0-.91.305-1.674.914-2.296.61-.622 1.418-.933 2.422-.933Z" fill="url('#paint0_linear_2701_1181')"/><defs><linearGradient id="paint0_linear_2701_1181" x1="161.08" y1="16.119" x2="1.596" y2="32.353" gradientUnits="userSpaceOnUse"><stop stop-color="#299BD8"/><stop offset="1" stop-color="#1262AF"/></linearGradient></defs></svg>